<?xml version="1.0" encoding="UTF-8"?>
<svg width="247.34" height="470.88" enable-background="new 0 0 247.339 470.88" viewBox="0 0 247.339 470.88" xmlns="http://www.w3.org/2000/svg">
 <g fill-rule="evenodd">
  <path d="m195.84,113.76c.964-.163 1.502.098 1.44.96h-1.44v-.96z"/>
  <path d="m106.56,140.64h2.4c.894,1.347 1.132,3.349 3.36,3.36v4.8c-3.031,1.657-6.939,4.084-11.04,1.92-.317-1.762-.439-3.721-2.4-3.84-.225-1.024.686-.915 1.44-.96-.082-1.604.211-3.256.96-4.32 .621-.882 1.447-.285 2.88-.96-1.033.487 1.449-2.505.96,0l-.48.48 .48.48v1.44h-1.92c.663,1.943-1.042,1.518-.96,2.88-.082,1.362 1.623.937.96,2.88h2.88c-.086-1.834-2.534-1.306-1.92-3.84 1.943.663 1.518-1.042 2.88-.96 .359-1.479-1.655-.585-.96-2.4l.72-.24-.24-.72z"/>
  <path d="m136.32,149.76h.96v.96h-.96v-.96z"/>
  <path d="m185.28,116.64h-1.44v.96l-.239.72 .239.72h-1.92v-1.44c-2.233.634-1.606-1.593-3.84-.96-.745,2.025 2.665-.105 1.92,1.92l-.72-.24-.24.72h-2.88v1.44l-.72-.24-.24.72h-.48c-.993,1.406-2.767,2.033-3.84,3.36 3.281,1.483 5.87,6.718 3.36,11.04 3.809,2.112 8.543,3.297 9.6,8.16 3.657.183 3.245,4.435 6.24,5.28-.728,9.528 4.803,12.797 5.76,20.64 .078.562.876.405 1.44.48 1.29,4.47 3.209,8.311 4.8,12.48 .803.637 1.023,1.856 2.88,1.44-.202,2.762.266,4.854 1.92,5.76-.164,5.765 2.981,8.219 1.92,14.88 .078.562.876.405 1.44.48v4.8h-1.44c1.293,8.652-2.758,11.961-2.88,19.2-2.588,1.892-2.041,6.918-4.8,8.64-.147,1.438.194,2.914 0,4.32-.144,1.039-.77.663-.96,1.439-1.53,6.237.932,13.879 0,19.681-.167,1.04-.773.478-.96.96-.34.877.244,2.06 0,2.88-.031.104-.88-.096-.96,0-.404.482.243,2.069 0,2.88 .118-.396-1.94,1.493-.96,2.88h-1.44c-.133,1.287.183,2.151 0,3.36-.167,1.106-.705.408-.96.96-.383.83.216,2.113 0,2.88-.238.848-.862.798-.96,1.44-.302,1.99.337,3.818 0,5.76-.2,1.157-.559,1.44-.96,3.84-.182,1.089-.709.416-.96.96-.378.82.132,2.449 0,2.88-.024.078-.942-.077-.96,0-.302,1.37.226,2.934 0,4.32-2.254.465-1.922,3.519-3.84,4.319-.695,1.815 1.319.922.96,2.4-4.236-.556-1.396,5.965-4.32,6.72 2.408.792 1.658,4.743 4.32,5.28-.108,1.812.504,4.344-.96,4.8 .749,1.491.717,3.764 1.92,4.8-.354,2.163-1.291,1.573 0,3.36-2.549.651.562,6.963-1.92,7.68 .312.488 1.104.497.96,1.44-2.113.926-.893,5.188-2.88,6.24v3.84h-1.44c-.697,6.022-1.304,12.136-3.84,16.32-.694,1.814 1.319.921.96,2.399h-1.92c-1.152,2.467-.225,4.993-.96,7.2-.034.104-.864-.087-.96,0-.31.281.218,1.544 0,1.92-.077.134-.89-.136-.96,0-.196.377.301,1.646 0,1.92-.31.281-1.683,1.044-.96,3.36-2.618,1.222-2.998,4.682-5.28,6.24 1.97.358 3.942-3.41 6.24-4.32-.711-2.791 1.487-2.673.96-5.28 3.301-.859 2.127-6.193 4.8-7.68-.022-2.743.521-4.92 1.92-6.24v-3.84c2.896-.331 1.885-3.48 2.4-5.28 1.238-4.325 3.65-8.997 3.84-13.92 1.554.593.367-1.553 1.92-.96 .238-2.06-.022-3.104.96-4.8 .078-.134.89.136.96,0 .196-.377-.3-1.646 0-1.92 .11-.101.906.123.96,0 .826-1.889-.06-4.831 2.4-4.32v-2.88c2.319-2.001 4.354-4.285 4.8-8.16 1.26-.341 2.158-1.042 1.92-2.88 1.65-1.229 3.757-2.003 3.84-4.8 2.071-.81 3.511-2.249 4.32-4.32 1.819,1.051 2.11-1.39 2.88-1.92 .714-.492 2.547.8 1.92-.96 4.273-.527 10.725,1.125 13.44-.96 1.553-.273 2.414.146 2.88.96 4.58-2.423 9.83,1.722 13.92,2.88 .701,4.861-1.445,6.874-2.4,10.08-4.534-.375-6.619,1.701-11.52.96-4.724,2.316-10.035,4.045-11.04,10.08-2.218.342-2.437,2.684-2.4,5.28-2.759,1.721-2.212,6.747-4.8,8.64v3.36c-1.905.335-.975,3.505-2.88,3.84 .27,3.629-1.994,4.726-1.92,8.16h-1.44c-.161,1.208.216,2.549 0,3.84-.183,1.095-.701.409-.96.96-.729,1.554-.545,4.511-.96,5.76-.026.081-.942-.079-.96,0-.302,1.371.266,2.939 0,4.32-.202,1.052-.724.437-.96.96-.429.949.225,2.705 0,3.84-.199,1.005-.719.68-.96,1.44-.473,1.49.32,3.354 0,4.8-.741,3.354-3.236,6.439-2.88,10.08-1.772.397-1.155,2.34-1.92,3.84-.068.135-.883-.133-.96,0-.218.376.31,1.639 0,1.92-.234.213-1.71.892-.96,2.88h-1.44v3.36c-4.896,2.784-6.405,8.955-12.479,10.56-1.417,3.223-4.976,4.305-7.68,6.24-1.837.236-1.533-1.667-3.841-.96-.024,3.385 3.96,2.761 4.32,5.76-1.325,3.475-3.165,6.436-7.2,7.2v3.84c2.282-1.275.795-.521.96,1.92 6.489,1.031 3.761,11.279 4.32,18.24-1.479-.359-.585,1.654-2.4.96 .079,5.039-4.246,5.673-5.76,9.12-4.126-.126-7.139.861-10.08,1.92 .073-.529-.1-.891-.479-.96-6.795-1.243-16.798.925-24.48,0-.424-1.177-1.438-1.762-.96-3.84-2.504-.265-4.1.38-3.84,2.88-3.164,1.307-9.59,1.689-11.52-.96-.365.755-1.523.717-1.44,1.92-6.047.447-11.15-.05-12-4.8h-2.4c-.239-4.082-3.655-4.985-3.84-9.12-3.709,2.047-6.636-.122-10.08-.96 .709-2.149-1.405-1.475-.96-3.36-3.565-.313-6.391.438-9.12,0-3.508-.563-5.61-3.194-8.64-3.84-1.003-3.597 1.056-3.982.96-7.68-.207-1.073-2.366-.194-3.36-.48-.691.108-.167,1.433-.96,1.44-1.024.224-.915-.687-.96-1.44-3.646.777-6.668-2.583-9.12,0-3.342-1.458-6.062-3.538-9.6-4.8-1.414-1.946-2.664-4.057-5.28-4.8-.744-2.617-2.854-3.866-4.8-5.28-.641-3.52-3.535-4.785-5.76-6.72v-1.92c-.87-.41-1.324-1.236-2.4-1.44-.641-3.519-3.535-4.785-5.76-6.72-.83-3.65-2.462-6.498-3.84-9.601-.108-1.812.504-4.344-.96-4.8v-4.319c-.078-.562-.875-.405-1.44-.48 .202-2.762-.266-4.854-1.92-5.76v-4.8c-2.131-1.549-1.475-5.886-3.84-7.2-.221-2.02.678-5.158-.96-5.76-.55-1.511.753-1.167.96-1.921-.755-.365-.717-1.522-1.92-1.439-.52-6.04-2.272-10.849-2.88-16.8-.078-.562-.875-.405-1.44-.48-1.514-6.229.462-8.299-.96-12.96 2.497.417-.743-4.903 2.4-3.84-.296-4.615 1.694-6.945.96-12 4.379-3.141 7.482-7.558 8.64-13.92 1.479.358.585-1.655 2.4-.96 .224-1.024-.686-.914-1.44-.96v-32.16h1.44v-5.28c1.344-3.099 1.167-6.038 1.92-9.6 .156-.736.927-.802.96-.96 .214-1.047-.256-2.385 0-3.36 .251-.959.737-.478.96-.96 .659-1.428-.088-2.989.96-4.8 .066-.115.917.118.96,0 .992-2.687.027-5.71 2.88-6.24 .079-3.601 1.434-5.926 4.32-6.72-.238-1.838.66-2.54 1.92-2.88v-3.36c1.723-.197.763-3.077 2.88-2.88 .429-2.452 1.355-4.405 2.88-5.76 .177-2.863 1.36-4.721 2.88-6.24v-2.88c1.815.695.921-1.319 2.4-.96 .165-3.835 3.861-4.139 3.84-8.16 1.362.082.937-1.623 2.88-.96-.18-4.181 2.686-5.314 2.88-9.12h1.44c.648-5.271 1.878-9.962 1.92-15.84 1.217-1.264 1.217-3.536 0-4.8 1.528-3.687 3.398-6.436 2.88-11.04 3.493.773 3.243-2.198 3.84-4.32 4.305-.335 5.245-4.036 10.08-3.84-1.822-2.203-6.117-7.111-1.92-9.6-.617-1.783-3.311-1.489-5.76-1.44-1.876,3.244-6.813,3.427-8.16,7.2-3.668.012-3.532,3.828-7.2,3.84v-.96h-.96c.752-3.254 7.045-3.508 5.76-7.2l.24-.72-.72-.24v-.96h-1.44v-.96h-.96c.821-2.539 4.463-2.257 6.24-3.84v.96h.96v.96c1.453-1.107 3.902-1.218 4.8-2.88-1.943-.664-1.518,1.042-2.88.96v-.96h-.96v-.48c.524-1.685-2.945-1.285-1.92.48-2.645-.725-2.549,1.29-4.8.96l.24-.72-.72-.24v-.96c-.149-.651-1.202-.398-1.92-.48-.287,1.248.193,1.728 1.44,1.44l-.24.72 .72.24c-1.08,2.121-4.681,1.719-5.76,3.84h-2.4c-.058,1.382-2.632.248-2.4,1.92-4.593-.272-6.313,2.327-10.08,2.88-.767-3.007 1.469-3.011 1.92-4.8 5.098-.182 7.627-2.933 12-3.84v-3.36h1.92v-3.84c4.373-.907 6.902-3.658 12-3.84-.661-3.045 2.641-5.669 0-7.68-1.238-6.336 2.154-12.697 0-16.8 .974-7.854-3.001-10.759-1.92-18.72-1.553-.593-.367,1.553-1.92.96 1.076-1.374.981-2.334-.96-2.88-.085-3.435.644-7.684-2.4-8.16 .055-3.895-.64-7.04-1.92-9.6 .255-5.695-2.965-7.915-1.92-14.4 .264-1.064-.917-.683-.96-1.44 2.293-7.909-1.149-16.621 0-26.4 .816.176.906-.375.96-.96 4.188-.508 6.782.578 10.08.96 2.386,3.694 8.306,3.854 10.08,8.16 4.084.555 4.541,4.739 9.12,4.8 3.521,4.639 7.999,8.321 11.52,12.96 2.709.171 4.202,1.558 7.68.96 .348-1.572 3.492-.348 3.84-1.92 1.46-.46 4.868,1.028 4.8-.96 .816-.177.906.375.96.96 5.174-3.307 16.443-.518 21.6-3.84 2.806-.33 2.494,1.676 4.32,0 1.889-.769.167,2.073 1.44,1.92 2.531-.348 3.112-2.648 3.359-5.28 2.849-.191 1.522-4.558 4.32-4.8v-2.88c1.553.593.367-1.553 1.92-.96 1.434-6.247 4.723-10.638 6.72-16.32h1.92c2.145-3.136 6.711-3.849 9.12-6.72h3.84c.79-.971 2.269-1.252 3.36-1.92 5.47,2.53.955,15.045 3.84,20.16-.386,5.987 1.416,9.784 4.32,12.48 .302,2.258-.8,5.92.96,6.72-.555,5.045 1.164,12.364-.96,15.84 1.57,2.739 4.058,6.492 3.84,10.56-.059,1.095-.82.502-.96.96-.559,1.841.333,5.252-1.92,6.24-.265,2.135.744,5.543-.96,6.24 1.906,8.494 7.845,12.955 8.64,22.56 5.884-.904 13.4-1.981 16.32,2.4 .153,1.593-1.066,1.813-1.44,2.88h-.96c-1.023.224-.914-.686-.96-1.44-2.063-.39-5.595-.389-8.64-.96-2.592-.485-5.211-2.335-5.28,1.92-.152,1.273 2.689-.449 1.92,1.44l-.72.24 .24.72h-2.4v1.92l.24.48 .24.48c-.491.469-.972.949-1.44,1.44 .184,2.696 5.633.127 6.24,2.4h-.96v.96zm-31.2-41.76c.469-3.188-.498-4.941-.96-7.2-3.218-.782-4.969-3.031-9.12-2.88 .205,2.195 3.146,1.654 3.84,3.36 .289,3.489-.15,6.25-.96,8.64 1.189-1.21 3.788-1.013 6.24-.96 .635-1.203-2.235-1.165-.479-1.92 .76.043.38,1.224 1.44.96zm-19.2-7.2c-.43,3.25-3.172,4.188-3.84,7.2 5.57.541 5.717.666 11.04.96-.354-4.55-.651-3.951-.96-9.12-2.63-2.658-2.94,1.518-6.24.96zm-40.8,12c2.881-.159 4.112-1.968 7.2-1.92 .725-2.645-1.291-2.549-.96-4.8-2.104-.136-4.09-.391-4.32-2.4h-6.72c.966,3.674 5.303,3.977 4.8,9.12zm-11.04-5.76c-.506,2.693-2.307,4.092-2.88,6.72 1.444-.483.851,1.069.96,1.92h5.76c.77-2.912-.727-5.489-.96-6.24-.311-.999.836-3.651-.96-3.36 .484,1.443-1.069.851-1.92.96zm36.96,14.88c1.735-.455.67,1.891.96,2.88 1.287-.473 1.513-2.007 1.92-3.36-2.45-1.49.406-3.398 0-5.76 .907-.213 2.893.653 2.4-.96-.907-.213-2.893.653-2.4-.96-1.834,1.536-1.306-.047-3.84,0-.769,1.889 2.073.167 1.92,1.44-1.747.739-.703,2.839 0,3.84-1.443-.484-.851,1.069-.96,1.92h-.96v.96c-2.288.688.369-3.568-1.92-2.88v3.84h1.92 .96v-.96zm-4.8-4.8h-1.92v1.92c2.214.85 4.234-2.788 1.92-3.36v1.44zm-.96,24h.96v-.96h-.96v.96zm-3.36,4.8c1.731-.029 2.559-.961 2.4-2.88-1.19.57-1.5,2.02-2.4,2.88zm-54.72,12c-2.545.53-6.972.772-8.16,2.88 2.296-.292 4.604-.442 6.72-.96 .607-.148.438-.797.96-.96 .998-.311 3.506.896 3.36-.96 .383-2.72-3.915.22-2.88,0zm111.84,9.12c.851-.109 2.404.483 1.92-.96h-1.92v.96zm-24,.96h.96v-.96h-.96v.96zm13.92.48c-.755-.365-.717-1.523-1.92-1.44 .209,1.071.849,1.711 1.92,1.92l.24.72 .72-.24c.221,1.403-.678,6.406.96,4.8l.721.24 .72.24h.96v-.96h-.96l-.24-1.2-1.2.24v-1.44l.88.24 .561-.72h.96c-.291-.989.774-3.334-.96-2.88v.48l-.88-.24-.561.72h-.96l-.239-.72-.72.24zm-21.6,1.44h.96v-.96h-.96v.96zm16.8,1.92v-2.88c-2.585-.186-2.962,1.838-5.28,1.92v3.84c1.815.695.922-1.319 2.4-.96v.96h.96v1.44c1.296-.784 2.144-2.017 2.88-3.36h-.479l.239-.72-.72-.24zm-13.92,0h.96v-1.92h-.96v1.92zm4.8-.48c.163-.963-.098-1.502-.96-1.44v7.68l-.72-.24-.24.72h-.96l-.24-.72-.72.24c-.148-.652-1.202-.398-1.92-.48l-.24-.72-.72.24v-.48c-1.613.493-.747-1.493-.96-2.4-2.484.084-2.223-2.577-4.32-2.88 .594,1.553-1.553.367-.96,1.92 1.955-.194 2.463,1.058 3.84,1.44-.521,2.601.44,3.72 1.44,4.8-1.831.084-1.748,2.034-2.88,2.88-1.359,1.015-3.699,1.038-7.2.96-.032-1.408-1.467-1.414-1.92-2.4 .502-1.738-1.089-5.569.96-5.76l.24.72 .72-.24c-.265,1.064.917.684.96,1.44-.312.488-1.104.496-.96,1.44 1.784.456.838,3.642 3.84,2.88-.032-1.408-1.467-1.414-1.92-2.4 1.1-.18.64-1.92 1.44-2.4 .907-.213 2.893.653 2.399-.96-.979-1.102-3.986-.173-5.76-.48l-.24-.72-.72.24c-3.537.291-10.612,1.064-12.96-2.4-9.055-.734-15.401,1.239-24,.96 1.412,2.269 3.703,3.657 2.88,8.16-1.655-.055-1.225,1.975-2.88,1.92-.082,1.362 1.623.937.96,2.88 1.46.46 4.868-1.028 4.8.96 1.977-2.05 3.121.793 4.8-.96 .058,2.021 3.683.477 5.28.96-.163.963.098,1.502.96,1.44-.92-2.255 5.72-2.255 4.8,0 1.706.746.29-1.63 1.44-1.44 11.349.149 21.124-1.275 30.72-2.88-.807-1.273-2.817-1.343-1.92-4.32l.72.24 .24-.72c.559.078.854-.106.96-.48l.48.24 .479.24c1.894.293.564-2.636.96-3.84l.72.24 .24-.72h.96v-.96l-.239-.48-.24-.48h.479v-.96h-.96l-.24-.72-.72.24zm23.04-1.44h-1.92c1.218,1.264 1.218,3.536 0,4.8h1.92v-3.36l.72.24 .24-.72h.96v-.96c-.558-.078-.854.106-.96.48l-.479-.24-.48-.24zm-92.16,9.12h-.48c-.467.013-.373.587-.48.96 .86,1.699 2.891,2.229 4.8,2.88 .488-.312.497-1.104 1.44-.96-.48-3.84.42-6.299 1.92-8.16-3.092.533-4.483-.637-6.72-.96v5.76l-.72-.24 .24.72zm10.08,1.92c-1.545-3.177-.151-3.62.96-6.24h-1.92c-.913,1.7-1.979,5.93.96,6.24zm72.96-.96c-1.374.546-2.334,1.506-2.88,2.88 3.057-.143 4.218-2.182 3.84-5.76-1.553.593-.366-1.553-1.92-.96 .42,1.18 1.44,1.76.96,3.84zm3.36-2.88h.96v-.96h-.96v.96zm-11.04,6.72c.041-1.961-2.273-1.566-3.36-2.4v-4.32c-1.987-.068-.5,3.34-.96,4.8 1.83.25 1.52,2.64 4.32,1.92zm1.44-2.88c.842-.264 1.039-3.874-.961-2.88-.84.26-1.04,3.87.96,2.88zm.48,5.76h.96v-3.84h-.96v3.84zm-4.32,5.28c-.652,1.536-1.056,2.095-1.92,2.88 .454-.413-1.36,3.704-.96,1.92-.985,4.385 1.307,8.057 2.88,11.04 3.711.289 5.14,2.861 10.08,1.92 .771-1.31 2.196-1.964 4.32-1.92 .652-1.536 1.056-2.095 1.92-2.88-.454.413 1.36-3.704.96-1.92 .985-4.385-1.306-8.057-2.88-11.04-2.124.044-3.55-.61-4.32-1.92-4.94-.94-6.37,1.63-10.08,1.92z"/>
  <path d="m190.08,121.92v-.96c1.453,1.427 4.025,1.735 4.8,3.84h-.96v.96c-2.762.202-4.854-.266-5.76-1.92h.96v-.96-.96h.96z"/>
  <path d="m194.88,125.76v-.96c2.041-.281 3.051.47 3.36,1.92h-.96v.96c-2.041.281-3.051-.47-3.36-1.92h.96z"/>
  <path d="m198.24,127.68v-.96c3.171.029 3.31,3.09 6.72,2.88-.338,2.418 2.591,1.57 1.92,4.32-4.848-.432-6.872-3.688-9.6-6.24h.96z"/>
  <path d="m181.92,124.8v-.96c2.304.096 3.569,1.231 4.32,2.88h-.96v.96c-1.8-.6-3.806-.994-4.32-2.88h.96z"/>
  <path d="m46.08,146.88h.96c-1.865,3.254-5.32,4.919-7.2,8.16h-.96c-1.494-.586-2.148-2.012-1.92-4.32 3.198-1.442 5.546-3.733 9.12-4.8v.96z"/>
  <path d="m50.64,138.48 .72.24c-.184,1.602-3.202,1.331-4.8,1.92-.816.301-1.06,1.286-3.36.96-.997-.141-1.145-1.283-2.4-.96l.24-.72-.72-.24c-.111-2.19 4.282.122 4.32-1.92 1.51-.55 1.167.754 1.92.96 1.432-.008-.677-3.557 1.44-2.88v.96h.96v.96h1.92l-.24.72z"/>
  <path d="m39.6,140.4 .72.24c.185,1.255 1.539,1.341.96,3.36-2.28.12-3.496,1.304-5.28,1.92v-1.92c.078-.558-.106-.854-.48-.96l.24-.88-.72-.56c.837-1.402 2.417-2.063 4.8-1.92l-.24.72z"/>
  <path d="m27.36,150.72h.96c-.414,1.666-2.028,2.132-3.36,2.88-.212.907.653,2.893-.96,2.4-1.946.186-.528-2.992-.96-4.32 1.628-.452 2.404-1.756 4.32-1.92v.96z"/>
  <path d="m29.28,144.96h.96c-1.32,1.72-3.784,2.296-6.24,2.88v-3.36l.72.24 .24-.72h4.32v.96z"/>
  <path d="m56.16,132h-.96c-.176-.816.375-.906.96-.96v.96h.96c.177.816-.375.905-.96.96v-.96z"/>
  <path d="m183.6,111.6-.24-.72c5.946-.294 13.565,1.086 16.8-1.92-.055,1.655 1.975,1.225 1.92,2.88 .083,1.203-1.074,1.165-1.439,1.92-3.733-2.105-12.024-.251-16.801-.96-.772-.115-.938-.151-.96-.96l.72-.24z"/>
  <path d="m191.76,117.36-.239-.72c5.41-.29 8.545,1.695 14.399.96 .12,1.961 2.078,2.083 3.84,2.4l-.239.72 .72.24v.48c3.013.987 4.585,3.415 8.64,3.36v3.84c-.78-.819-2.694-.505-2.88-1.92h-2.88c-1.066-2.293-5.174-1.546-6.24-3.84-6.729.169-8.996-4.124-15.84-3.84v-1.44l.72-.24z"/>
  <g fill="none" stroke="#000" stroke-linecap="round">
   <path d="m104.64,141.12c.856-.038 1.487.041 2.16.24" stroke-width="1.0182"/>
   <path d="m188.16,120.96c.56.366 1.417.565 1.92.96" stroke-width="1.3291"/>
   <path d="m193.92,124.8 .96.96" stroke-width="1.3576"/>
   <path d="m197.28,126.72 .96.96" stroke-width="1.3576"/>
   <path d="m187.56,122.4c-2.858-.507-4.826-1.932-7.902-2.983-.083-.242-.216-.698-.378-1.097" stroke-width="1.082"/>
   <path d="m192 132c-1.63-2.703-4.544-3.567-6.72-5.28" stroke-width="1.3832"/>
   <path d="m181.92,124.8c-2.036-1.421-3.905-3.038-6.101-3.469-.084-.238-.217-.692-.379-1.091" stroke-width="1.1836"/>
   <path d="m47.04,145.92-.96.96" stroke-width="1.3576"/>
   <path d="m52.08,138c-.48.154-.96.292-1.44.48" stroke-width="1.0369"/>
   <path d="m41.04,139.92c-.48.154-.96.292-1.44.48" stroke-width="1.0369"/>
   <path d="m27.36 150.72c2.769-2.092 5.469-4.244 8.64-5.76" stroke-width="1.7472"/>
   <path d="m35.76,142.16c-2.479.143-4.329,1.685-6.48,2.8" stroke-width="1.5989"/>
   <path d="m24.72,144.72c-.168-.48-.183-.96-.24-1.44" stroke-width="1.0295"/>
   <path d="m48,136.8c.56-.366 1.417-.565 1.92-.96" stroke-width="1.1758"/>
   <path d="m50.64,131.28c-.48.154-.96.293-1.44.48" stroke-width="1.0369"/>
   <path d="m183.12,108.24c2.659.521 5.449.107 8.16.24" stroke-width="1.0182"/>
   <path d="m181.2,111.36c.8-.02 1.6-.032 2.4.24" stroke-width="1.0245"/>
   <path d="m210.48,120.48c-.32.029-.641.132-.96.24" stroke-width="1.0369"/>
   <path d="m191.76,117.36c-1.979-1.459-4.82.245-6.479-1.68" stroke-width="1.8018"/>
   <path d="m120,89.76c-.366-.559-.565-1.417-.96-1.92" stroke-width="1.1758"/>
   <path d="m187.56,122.4c.073-.462.325-1.032.6-1.44" stroke-width="1.1257"/>
   <path d="m188.16 120.96c-1.575-1.103-2.917-1.682-4.56-2.64" stroke-width="1.1648"/>
   <path d="m187.56,122.4c.072.341.13.619.226.827 .368.086.94.337 1.334.613" stroke-width="1.0885"/>
   <path d="m58.08,131.04c-.559.366-1.417.565-1.92.96" stroke-width="1.1758"/>
   <path d="m56.16,132-.96.96" stroke-width="1.3576"/>
   <path d="m158.16,136.56c.154-.48.293-.96.48-1.44" stroke-width="1.0369"/>
   <path d="m160.56,141.36c-.049-.64.175-1.28.479-1.92" stroke-width="1.5305"/>
   <path d="m160.72,138.48c-.336-1.093.033-2.269-.319-3.36" stroke-width="1.483"/>
   <path d="m144.6,140.16c-.15-.539-.14-1.385.119-2.16" stroke-width="1.0263"/>
   <path d="m167.76,138.48c-.168-.48-.183-.96-.239-1.44" stroke-width="1.0295"/>
   <path d="m125.52,142.32c.154-.48.292-.96.479-1.44" stroke-width="1.0369"/>
   <path d="m140.88,146.64c-.28-.8-.246-1.6 0-2.4" stroke-width="1.0263"/>
   <path d="m137.76,144.24c.029-.32.133-.64.24-.96" stroke-width="1.0182"/>
   <path d="m144.6 140.16h1.08" stroke-width="1.0182"/>
   <path d="m74.64,145.2c.497.53.842.816 1.177,1.028 .589-.473 1.021-.758 1.703-.788" stroke-width=".7799"/>
   <path d="m153.84,138.96c-.851.207-1.596.659-2.434.885-.023.324-.615,1.174-1.166,1.754" stroke-width="1.6878"/>
   <path d="m144.6,140.16c-.15.54-.14,1.386.119,2.16" stroke-width="1.0263"/>
   <path d="m142.56,145.68c.014-.48-.11-.96-.24-1.44" stroke-width="1.0295"/>
  </g>
 </g>
</svg>
