<?xml version="1.0" encoding="UTF-8"?>
<svg enable-background="new 0 0 320 380" viewBox="0 0 320 380" xmlns="http://www.w3.org/2000/svg">
 <path d="m309.815,49.187c-1.031-8.38-2.209-16.614-3.379-24.854-.477-7.054-3.623-11.432-9.016-13.557-6.4-1.701-9.035-.275-14.648,1.13-.562,3.554 2.455,4.416 0,6.778-2.57,1.566-.42,7.863-1.127,11.297 1.43,23.3-7.01,41.129-12.396,59.875-6.469,22.519-10.387,35.309-20.283,48.578-5.602,7.513-17.182,16.617-21.41,25.984-4.248,2.896-7.172,7.12-13.521,7.908-10.361-8.442-26.123-11.469-37.188-19.206-18.285-4.762-32.505-8.64-50.709-14.687-5.647-1.116-7.404-6.133-15.776-4.519-14.439-2.254-1.755-9.367 4.507-12.427-3.648-11.829 1.959-19.854-3.38-28.243 2.176-5.975-9.192-8.088-12.396-12.428-.775-4.543 1.08-6.448 1.127-10.166-2.28-2.162-8.428-8.872-11.269-3.39-1.13-.004-1.341.915-2.253,1.13v-4.52c-.135-3.254.615-7.396-1.127-9.037 2.722-2.625-1.76-3.025-2.253-5.648-2.744.637-5.796.967-5.635,4.518-.076,3.313-2.575,4.197-4.507,5.649h-1.127c-11.418,6.845-15.064,17.108-23.664,24.854-3.723,4.929-8.673,8.627-12.396,13.556-6.367,9.81-14.681,17.667-20.283,28.243 .555,6.205-3.642,7.646-3.381,13.557-3.555,3.214-1.863,11.689-2.254,18.076 2.548,3.784-1.736,12.191 3.381,10.167 4.063,12.496 6.519,26.604 12.396,37.281 .395,10.821 8.775,18.576 13.522,28.242v1.131c-.43,7.209 4.844,8.699 4.507,15.815 2.372,4.025 2.345,10.452 5.634,13.557 2.603,8.984 9.343,22.711 5.793,31.248-4.823,1.398-8.355,5.877-8.355,11.197 0,.275.022.545.041.816-.019.271-.041.54-.041.815 0,3.131 1.229,5.968 3.217,8.062-.218-.059-.44-.107-.655-.172 6.657,8.476 32.119,8.123 34.933-3.389 4.784-.189 9.768-4.623 13.523-2.26 3.725-9.574 13.492-19.362 9.351-36-.121-5.984-1.116-11.506-2.732-16.053 11.873,3.553 22.16,12.684 26.061,23.81 1.095,4.552 4.369,6.917 6.761,10.168 3.399,6.007 6.259,12.554 11.269,16.945-.049,1.556.531,2.482 1.127,3.39-1.976,1.033-5.623.389-6.762,2.26 .983,1.65.895,4.375 4.508,3.39 .238,1.268 1.25,1.758 2.254,2.26 1.886,4.887 8.611,4.921 7.888,12.427-9.333-2.93-18.608-3.915-29.298-1.131-4.945,8.298-2.805,18.126 1.127,25.984 14.586,7.01 47.24,7.194 65.357-4.52 4.537-2.932 16.775-12.917 16.902-15.816 .098-2.195-2.795-3.873-2.254-5.648 4.936-.203 5.795,3.674 10.143,1.131h1.127c.879.249 1.311.945 1.127,2.26-22.154,14.32-8.156,40.697 22.537,33.891 1.459-7.368 8.312-7.38 10.143-13.557 2.561-8.65-3.986-18.803 0-30.503 .877-.248 1.311-.945 1.127-2.259 2.871-3.983-.879-9.139-2.254-12.428-.086-2.902-5.25-1.614-2.254-4.519-.865-5.801 1.953-8.58 0-12.427v-3.389c1.643-7.296-6.803-4.479-6.762-10.168 6.939.67-.291-4.958 0-7.907 11.242-10.238 10.947-25.328 11.27-40.672 1.389-3.194 1.389-6.972 0-10.166-2.701-5.576-7.334-9.217-7.889-16.946 3.893-3.628 5.305-9.745 6.762-15.816 4.719-11.837 14.162-18.941 21.41-28.243 .373-10.721 10.096-18.334 14.648-28.243h1.127c.215-3.145 8.324-11.41 2.254-10.167 9.037-17.364 8.299-37.616 14.648-54.227 2.602-3.789.395-12.404 1.125-18.072z" fill="#fff" fill-rule="evenodd"/>
 <path d="m281.646,29.981c.707-3.434-1.443-9.73 1.127-11.297-.707,3.433 1.442,9.731-1.127,11.297z" fill="#878787" fill-rule="evenodd"/>
 <path d="m85.57,81.948v-4.518c1.311.184 2.005-.25 2.254-1.13 4.84,1.503.308,5.047 0,7.908-1.489-.013-1.03-1.98-2.254-2.26z" fill="#9e9e9e" fill-rule="evenodd"/>
 <path d="m227.56 220.9c3.791 0.445 3.02 8.752-2.254 6.778-0.54-3.555 1.604-4.416 2.254-6.778z" fill="#616161" fill-rule="evenodd"/>
 <path d="m96.839,280.779c-.523-3.535.979-5.043 4.507-4.519 1.029,4.337-1.839,7.211-4.507,4.519z" fill-rule="evenodd"/>
 <path d="m96.839,286.429c2.355-.479 2.984.774 4.507,1.129-2.733,4.038-4.608,8.937-6.761,13.558-5.243-3.113 1.734-10.186 2.254-14.687z" fill-rule="evenodd"/>
 <path d="m244.46 294.34c-2.866-0.114-2.662-4.209-1.127-5.647h2.254c1.446 1.483 1.446 4.164 0 5.647h-1.127z" fill-rule="evenodd"/>
 <path d="m75.429,295.465c.701,4.375.933,4.652-1.127,7.909-2.021.143-2.376-1.383-4.507-1.13-.465-4.608 1.154-7.127 5.634-6.779z" fill-rule="evenodd"/>
 <path d="m51.765,311.282c-4.284.905-1.433-5.342-2.254-7.907 1.675,1.709 1.815,4.957 2.254,7.907z" fill-rule="evenodd"/>
 <path d="m73.175,305.633c4.66-.346 2.095,7.897-2.254,5.648-.173-2.809 1.77-3.496 2.254-5.648z" fill-rule="evenodd"/>
 <path d="m143.041,314.671c4.989.537 5.604-1.555 9.016,0 .343,2.98-2.353,2.913-4.508,3.39-3.613.985-3.525-1.739-4.508-3.39z" fill-rule="evenodd"/>
 <path d="m110.36 133.92c8.372-1.614 10.129 3.402 15.776 4.519-4.772 2.487-9.749-4.508-15.776-4.519z" fill="#e7e7e7" fill-rule="evenodd"/>
 <path d="m111.489,93.246c-3.216-5.438-9.73-7.568-14.649-11.298 .981-7.67-.675-17.76-6.761-14.686h-1.127c2.84-5.482 8.988,1.228 11.269,3.389-.047,3.718-1.902,5.624-1.127,10.167 3.203,4.34 14.571,6.453 12.395,12.428z" fill="#e7e7e7" fill-rule="evenodd"/>
 <path d="m77.682,53.705c-.162-3.551 2.891-3.881 5.635-4.519 .494,2.624 4.976,3.024 2.253,5.648-2.297-.333-2.209-3.057-4.507-3.389-1.608.272-1.901,1.861-3.381,2.26z" fill="#e0e0e0" fill-rule="evenodd"/>
 <path d="m48.384 84.208c8.6-7.746 12.246-18.009 23.664-24.854h1.127c-9.305 7.24-13.15 19.955-24.791 24.854z" fill="#e7e7e7" fill-rule="evenodd"/>
 <path d="m39.369 233.33c-4.748-9.666-13.128-17.421-13.522-28.242 4.192 9.73 11.833 16.003 13.522 28.242z" fill="#e7e7e7" fill-rule="evenodd"/>
 <path d="m45.003,248.017c1.701,5.073 3.776,9.771 4.507,15.816-3.289-3.104-3.262-9.531-5.634-13.557 .879-.249 1.311-.944 1.127-2.259z" fill="#9e9e9e" fill-rule="evenodd"/>
 <path d="m137.41 292.08c-2.391-3.251-5.666-5.616-6.761-10.168 2.964 2.676 6.24 5.042 6.761 10.168z" fill="#9e9e9e" fill-rule="evenodd"/>
 <path d="m143.041,314.671c1.139-1.871 4.786-1.227 6.761-2.26-.596-.907-1.175-1.834-1.127-3.39 3.498,1.767 7.391,3.136 9.015,6.778-3.103-1.357-5.967-1.216-3.38,2.261-1.667.587-2.84,1.671-4.508,2.26-1.003-.502-2.015-.992-2.253-2.26 2.155-.477 4.851-.409 4.508-3.39-3.412-1.553-4.027.538-9.016.001z" fill="#e7e7e7" fill-rule="evenodd"/>
 <path d="m247.84 203.96c1.493-6.033 3.858-11.195 6.761-15.816-1.457 6.071-2.869 12.189-6.761 15.816z" fill="#c8c8c8" fill-rule="evenodd"/>
 <path d="m294.04 121.49c6.07-1.243-2.038 7.022-2.253 10.167h-1.127c-1.123-5.646 3.5-5.53 3.38-10.167z" fill="#e7e7e7" fill-rule="evenodd"/>
 <path d="m297.42 10.776c5.392 2.125 8.538 6.502 9.015 13.557-2.298-4.851-5.245-9.052-9.015-12.427v-1.13z" fill="#c1c1c1" fill-rule="evenodd"/>
 <path d="m60.779,243.5c3.55-.546 2.552,3.468 6.761,2.258 2.879.127 3.944,2.072 5.635,3.39 3.455-1.109-1.295-3.015-1.127-4.52 1.9,1.861 5.064,2.456 6.761,4.52h-4.508c.023,3.367 5.316,1.449 6.761,3.39v1.13c-.691-.331-4.338-2.811-4.507,0h-1.127c-1.736-2.401-4.067-4.207-5.634-6.779-5.182,1.833-5.699-.926-9.015-3.389z" fill="#c8c8c8" fill-rule="evenodd"/>
 <path d="m77.682,261.574c.061-1.943-.867-2.896-2.253-3.388-5.191-1.062-2.161,6.117-4.507,7.906-2.732-3.919 3.157-8.846 4.507-12.426h1.127c-.665,4.433 6.188,1.328 4.507,6.777-.877-.248-1.31-.945-1.126-2.258-1.313.189-1.224,1.784-1.127,3.388l-1.128.001z" fill="#9e9e9e" fill-rule="evenodd"/>
 <path d="m70.921,276.26c-3.91-4.023-.646,4.142-3.381,4.519v-9.036c4.006-1.758.68,3.836 3.381,3.388v1.129z" fill="#878787" fill-rule="evenodd"/>
 <path d="m39.369,234.461c2.848,3.546 4.658,8.134 5.634,13.556 .183,1.314-.249,2.01-1.127,2.26 .337-7.116-4.937-8.607-4.507-15.816z" fill="#c8c8c8" fill-rule="evenodd"/>
 <path d="m35.988 97.764c-5.51 10.669-10.04 22.321-20.283 28.243 5.602-10.576 13.916-18.434 20.283-28.243z" fill="#e7e7e7" fill-rule="evenodd"/>
 <path d="m214.03 172.33c6.35-0.788 9.274-5.013 13.521-7.908-3.599 3.923-6.332 8.714-13.521 9.037v-1.129z" fill="#9e9e9e" fill-rule="evenodd"/>
 <path d="m86.698,63.873v4.519c.913-.215 1.123-1.133 2.253-1.129h1.127c-.166,2.469-2.839,2.425-5.635,2.259 .624-2.012.58-4.692 2.255-5.649z" fill="#c8c8c8" fill-rule="evenodd"/>
 <path d="m79.937,94.375c-3.48-1.135 3.236-1.068 2.253-3.389-.143-2.026 1.379-2.383 1.127-4.519h1.126c-1.724,3.472 7.359,3.472 5.635,0 1.096.031.874,1.383 1.127,2.259-4.824.813-8.915,2.36-11.268,5.649z" fill-rule="evenodd"/>
 <path d="m79.937,94.375c-.182,1.324-2.055.953-3.381,1.13v-4.519h5.634c.982,2.321-5.733,2.254-2.253,3.389z" fill="#616161" fill-rule="evenodd"/>
 <path d="m91.205,101.154c-2.778.149-5.43.171-6.762-1.13-.985-5.167 8.897-4.524 6.762,1.13z" fill="#616161" fill-rule="evenodd"/>
 <path d="m67.541,241.24c-.102,3.082 1.877,2.274 0,4.518-4.209,1.21-3.211-2.804-6.761-2.258-5.1-2.419-11.915-3.118-11.269-11.299 6.622,2.399 14.275,3.764 18.03,9.039z" fill="#fff" fill-rule="evenodd"/>
 <path d="m67.541,241.24c1.498,1.135 4.193,1.068 4.508,3.388-.168,1.505 4.582,3.41 1.127,4.52-1.69-1.317-2.756-3.263-5.635-3.39 1.877-2.244-.102-1.436 0-4.518z" fill="#f8f8f8" fill-rule="evenodd"/>
 <path d="m81.063,252.537c-1.445-1.94-6.738-.022-6.761-3.39h4.508c3.986-.606 5.806.959 6.761,3.39-2.099,1.081-3.767-3.384-4.508,0z" fill="#e7e7e7" fill-rule="evenodd"/>
 <path d="m76.556,253.667c.169-2.811 3.816-.331 4.507,0-1.205,4.221 2.798,3.22 2.254,6.777h-2.254c1.68-5.449-5.172-2.345-4.507-6.777z" fill-rule="evenodd"/>
 <path d="m83.317,260.444c1.153-1.103 2.28-2.232 3.381-3.388h1.127c.863,9.148-3.209,13.352-4.508,20.334-3.011,2.63-1.198,10.096-3.38,13.557-1.376-.203-.793-17.122 3.38-19.204-.563-3.555 2.457-4.418 0-6.779-3.543-.162-3.871,2.898-4.507,5.649-1.13.003-1.341-.916-2.254-1.13-.653-3.668.768-5.257 1.126-7.909h1.127c-.097-1.604-.187-3.198 1.127-3.388-.184,1.312.249,2.01 1.126,2.258h2.255z" fill="#f8f8f8" fill-rule="evenodd"/>
 <path d="m78.81,270.613c.314,2.619 3.01,2.597 4.507,1.13-4.174,2.082-4.756,19.001-3.38,19.204-.182,1.324-2.055.954-3.381,1.13v-1.13c4.564-4.57 1.611-16.109 0-21.464 .912.214 1.123,1.133 2.254,1.13z" fill="#b0b0b0" fill-rule="evenodd"/>
 <path d="m97.966,272.873c1.44.062 1.561,1.447 3.38,1.129v2.259c-3.528-.524-5.03.983-4.507,4.519-4.509-3.134 4.841-5.284 1.127-7.907z" fill="#e7e7e7" fill-rule="evenodd"/>
 <path d="m226.43 280.78c-1.633-2.127-1.656-5.869-4.507-6.777-3.991-0.611-2.771 4.001-6.762 3.389 2.484-2.781 3.141-7.395 7.888-7.907 0.295 1.588 2.472 1.287 3.381 2.26-2.623 4.431 1.379 4.198 1.127 9.036l-1.127-1e-3z" fill="#c8c8c8" fill-rule="evenodd"/>
 <path d="m83.317,292.077c-.817-3.455 1.944-3.322 1.126-6.777-5.104-1.729.598,7.377-4.507,5.647 2.183-3.461.369-10.927 3.38-13.557 .189,4.942 4.95,11.292.001,14.687z" fill="#e7e7e7" fill-rule="evenodd"/>
 <path d="m226.429,280.779c-4.272-1.759-12.425-.863-14.649,2.26-1.319-.183-.95-2.06-1.127-3.389v-1.13c1.524-.355 2.153-1.608 4.508-1.13 3.991.612 2.771-4 6.762-3.389 2.849.909 2.873,4.651 4.506,6.778z" fill="#fff" fill-rule="evenodd"/>
 <path d="m232.063,270.613c.905.598 1.829,1.178 3.381,1.13 1.189,2.211-.999,6.67 4.507,6.777-7.243,5.483-14.79-2.082-7.888-7.907z" fill="#c8c8c8" fill-rule="evenodd"/>
 <path d="m93.458,278.52c1.157,3.797-3.504,1.759-5.634,2.259 .271-2.847 3.323-4.68 5.634-2.259z" fill="#f8f8f8" fill-rule="evenodd"/>
 <path d="m207.272,292.077c-3.725-.949-6.892,9.763-2.254,6.778-4.009,5.122 2.532,7.481 4.507,10.167-2.346-2.005-11.828-.871-7.888-5.647h-6.762c3.169-2.677 4.051-4.276 1.127-7.909 3.02-6.764 11.682-7.869 13.522-15.815h1.127c.177,1.329-.192,3.206 1.127,3.389 2.225-3.123 10.377-4.019 14.649-2.26h1.127c-.252.878-.03,2.229-1.127,2.26-4.362,4.042-17.192-.918-15.776,5.649-.629,1.626-1.756,2.756-3.379,3.388z" fill="#c2c2c2" fill-rule="evenodd"/>
 <path d="m245.585,288.688h-2.254c-1.535,1.438-1.739,5.533 1.127,5.647v3.39c1.998,3.724-1.2,5.646 2.255,7.908v3.389c3.584,4.568 1.548,7.895 3.381,13.558-1.02,1.249-2.521.781-4.509,0-2.881-5.91-5.487,1.213-3.38,5.648-.905,4.364-9.451,1.068-7.888,7.908-4.583,1.521-.241,2.888 0,5.648-2.263-.385-3.526.231-3.381,2.26-.781.91-1.753,3.094 0,3.389 2.337,2.177-.386,9.425 4.508,9.038v1.13c-3.543,1.575 1.549,5.576-1.127,6.778h-5.636c-16.754,2.578-19.159-22.203-3.38-22.595 2.969-19.169-11.148-21.208-15.776-32.763-1.975-2.686-8.516-5.045-4.507-10.167-1.558-4.573 2.446-3.573 2.254-6.778 1.622-.632 2.75-1.762 3.38-3.389 2.021.143 2.377-1.383 4.508-1.13 4.006-1.757.68,3.837 3.381,3.389 1.264.239 1.755,1.254 2.254,2.26 6.876-2.678 15.025-9.577 22.536-7.907 .271,1.612 1.857,1.906 2.254,3.389z" fill="#fff" fill-rule="evenodd"/>
 <path d="m234.32 336.14c-1.563-6.84 6.982-3.544 7.888-7.908 0.089 4.984-2.397 7.387-6.761 7.908h-1.127z" fill="#e7e7e7" fill-rule="evenodd"/>
 <path d="m230.937,344.044c-.146-2.028 1.118-2.645 3.381-2.26-.241-2.761-4.583-4.128 0-5.648h1.127c-.214.914-1.132,1.125-1.127,2.259 1.308-.947 3.021-1.49 5.634-1.13 1.267,6.543-5.683,4.849-9.015,6.779z" fill="#c8c8c8" fill-rule="evenodd"/>
 <path d="m251.22,293.207c-4.856-1.104-3.278,4.244-6.762,4.519v-3.39h1.127c1.446-1.483 1.446-4.164 0-5.647-.397-1.483-1.983-1.777-2.254-3.389 3.272.861 2.924,5.354 7.889,4.519v3.388z" fill="#b0b0b0" fill-rule="evenodd"/>
 <path d="m246.71 305.63c2.239 1.882 1.433-0.102 4.507 0-2.996 2.904 2.168 1.616 2.254 4.519-2.93-1.44-3.398-2.479-6.761-1.13v-3.389z" fill="#9e9e9e" fill-rule="evenodd"/>
 <path d="m157.69,315.8c7.638-.126 11.871,3.163 15.777,6.779 3.185-2.079 7.54-2.984 7.888-7.908 7.691.179 11.355-3.68 15.776-6.778 2.617,3.729 1.112,11.135-2.255,12.428 2.189,7.219 3.184,15.637 11.27,16.944-11.677,10.881-27.148,20.127-45.075,21.465h-13.522c-10.164-1.677-20.74-6.627-19.157-15.815 2.783-16.156 26.983-.076 37.187-7.907-.648-8.766-7.511-11.301-11.269-16.946-2.587-3.478.277-3.619 3.38-2.262z" fill="#fff" fill-rule="evenodd"/>
 <path d="m161.071,358.73c17.926-1.338 33.398-10.584 45.075-21.465-8.086-1.308-9.08-9.726-11.27-16.944 3.367-1.293 4.872-8.699 2.255-12.428-4.421,3.099-8.085,6.957-15.776,6.778-.348,4.924-4.703,5.829-7.888,7.908-3.906-3.616-8.139-6.905-15.777-6.779-1.625-3.643-5.517-5.012-9.015-6.778-5.009-4.392-7.869-10.938-11.268-16.945-.521-5.126-3.796-7.491-6.761-10.168-5.676-16.194-24.884-28.163-42.821-24.853h-1.127c-1.53-.351-.935-2.83-1.127-4.52-.955-2.431-2.775-3.996-6.761-3.39-1.697-2.063-4.861-2.658-6.761-4.52-.314-2.319-3.01-2.253-4.508-3.388-3.754-5.274-11.407-6.64-18.03-9.039-.646,8.181 6.169,8.88 11.269,11.299 3.315,2.464 3.833,5.223 9.015,3.388 1.567,2.572 3.898,4.378 5.634,6.779-1.35,3.58-7.24,8.507-4.507,12.426 2.346-1.789-.684-8.969 4.507-7.906 1.386.492 2.314,1.444 2.253,3.388-.359,2.652-1.78,4.241-1.126,7.909 1.611,5.354 4.564,16.894 0,21.464-5.088-2.699-2.473-8.67-5.634-14.687v-1.13c-2.701.448.625-5.146-3.381-3.388v9.036c-3.978,3.022-3.359,6.736-1.126,11.298-1.345,2.419-2.126,5.4-4.507,6.778-4.364.985-1.842-4.932-6.761-3.39 3.919-8.505-2.993-22.513-5.635-31.632-.731-6.045-2.806-10.743-4.507-15.816-.976-5.422-2.786-10.01-5.634-13.556v-1.131c-1.689-12.238-9.33-18.512-13.522-28.242-5.877-10.678-8.333-24.785-12.396-37.281-.041-4.101.632-8.918-2.254-10.167 .49-7.212.814-9.514 1.127-18.076-.261-5.91 3.936-7.352 3.381-13.557 10.244-5.922 14.773-17.574 20.283-28.243 3.723-4.929 8.673-8.627 12.396-13.556 11.641-4.899 15.485-17.614 24.791-24.854 1.932-1.453 4.431-2.336 4.507-5.649 1.48-.399 1.772-1.988 3.381-2.259 2.298.332 2.21,3.057 4.507,3.389 1.743,1.642.993,5.783 1.127,9.038-1.675.958-1.631,3.638-2.254,5.649 2.796.166 5.469.21 5.635-2.259 6.086-3.074 7.742,7.015 6.761,14.686 4.919,3.729 11.434,5.86 14.649,11.298 5.339,8.39-.269,16.415 3.38,28.243-6.262,3.06-18.946,10.173-4.508,12.427 6.026.012 11.004,7.007 15.776,4.519 18.205,6.047 32.424,9.925 50.709,14.687 11.064,7.737 26.826,10.764 37.188,19.206v1.129c7.189-.323 9.923-5.114 13.521-9.037 4.229-9.367 15.809-18.472 21.411-25.984 9.896-13.27 13.814-26.059 20.283-48.578 5.386-18.746 13.826-36.575 12.396-59.875 2.569-1.566.421-7.864 1.127-11.297 2.456-2.362-.562-3.225 0-6.778 5.613-1.405 8.249-2.831 14.649-1.13v1.13c3.77,3.375 6.717,7.576 9.015,12.427 1.171,8.24 2.348,16.475 3.38,24.854-2.57,6.064-1.289,10.997-1.127,18.076-6.35,16.61-5.612,36.862-14.649,54.227 .12,4.638-4.503,4.521-3.38,10.167-4.554,9.909-14.275,17.522-14.649,28.243-7.248,9.302-16.69,16.406-21.41,28.243-2.902,4.621-5.268,9.783-6.761,15.816 .554,7.729 5.187,11.37 7.888,16.946-1.863.857-1.863,9.309 0,10.166-.322,15.344-.026,30.434-11.27,40.672-.291,2.949 6.939,8.577 0,7.907-.04,5.689 8.404,2.872 6.762,10.168-4.965.835-4.616-3.657-7.889-4.519-7.511-1.67-15.66,5.229-22.536,7.907-.499-1.006-.99-2.021-2.254-2.26 .047-5.225 7.114-3.411 7.888-7.908 1.097-.03.875-1.382 1.127-2.26 .252-4.838-3.75-4.605-1.127-9.036-.909-.973-3.086-.672-3.381-2.26-4.747.513-5.403,5.126-7.888,7.907-2.354-.479-2.983.774-4.508,1.13v1.13h-1.127c-1.841,7.946-10.503,9.052-13.522,15.815 2.924,3.633 2.042,5.232-1.127,7.909h6.762c-3.94,4.776 5.542,3.643 7.888,5.647 4.628,11.555 18.745,13.594 15.776,32.763-15.779.392-13.374,25.173 3.38,22.595 3.229,2.055 14.312,2.336 14.649-2.26 1.518-2.998 5.631-3.393 5.636-7.908 3.36-8.904-.827-23.974 3.38-29.373h2.254c-3.985,11.7 2.562,21.853 0,30.503-1.829,6.177-8.684,6.188-10.143,13.557-30.692,6.807-44.691-19.57-22.536-33.891 .183-1.314-.249-2.011-1.127-2.26-.633-3.509-1.345-6.937-5.635-6.779h-1.126c-3.605-3.541-10.511-3.773-13.522-7.907-2.989,1.633 4.137,2.522 2.253,6.777h7.888c.359,2.62-.181,4.338-1.127,5.648v1.13c-.542,1.775 2.351,3.453 2.254,5.648-.127,2.899-12.366,12.885-16.903,15.816-18.116,11.714-50.771,11.529-65.357,4.52-3.931-7.858-6.071-17.687-1.127-25.984 10.69-2.784 19.965-1.799 29.298,1.131 .724-7.506-6.002-7.54-7.888-12.427 1.668-.589 2.84-1.673 4.508-2.26 3.758,5.646 10.62,8.181 11.269,16.946-10.204,7.831-34.403-8.249-37.187,7.907-1.583,9.188 8.993,14.139 19.157,15.815 1.941,1.876 11.576,1.876 13.52.002zm-75.501-276.782c.085,1.969-.251,3.515-1.127,4.52h-1.126c.252,2.136-1.27,2.493-1.127,4.519h-5.634v4.519c1.326-.177 3.199.194 3.381-1.13 2.353-3.289 6.444-4.836 11.269-5.649-.253-.876-.031-2.229-1.127-2.259-.238-1.268-1.25-1.758-2.253-2.259 .308-2.861 4.84-6.405 0-7.908-.249.88-.944,1.313-2.254,1.13-.002,1.505-.002,3.011-.002,4.517zm-1.127,18.076c1.332,1.301 3.984,1.279 6.762,1.13 2.135-5.654-7.747-6.297-6.762-1.13zm140.859,127.659c5.273,1.974 6.045-6.333 2.254-6.778-.65,2.362-2.794,3.223-2.254,6.778zm14.649,50.837c-5.506-.107-3.317-4.566-4.507-6.777-1.552.048-2.476-.532-3.381-1.13-6.902,5.825.645,13.39 7.888,7.907z" fill-rule="evenodd"/>
 <path d="m248.967,354.211v-24.854c-2.988-.359 1.053,6.328-3.382,4.52 1.388-4.797.413-6.084 0-11.298 1.987.781 3.489,1.249 4.509,0h5.634c.184,1.313-.249,2.011-1.127,2.259h-2.254c-4.207,5.4-.02,20.469-3.38,29.373z" fill="#b0b0b0" fill-rule="evenodd"/>
 <path d="m209.525,330.487c.946-1.311 1.486-3.028 1.127-5.648h-7.888c1.884-4.255-5.242-5.145-2.253-6.777 3.012,4.134 9.917,4.366 13.522,7.907-1.132.004-1.342-.915-2.255-1.13 .168,2.802.212,5.482-2.253,5.648z" fill="#b0b0b0" fill-rule="evenodd"/>
 <path d="m215.16 325.97c4.29-0.157 5.002 3.271 5.635 6.779h-1.127c-1.069-2.318-1.398-5.378-4.508-5.649v-1.13z" fill="#c8c8c8" fill-rule="evenodd"/>
 <path d="m209.525,330.487c2.465-.166 2.421-2.846 2.254-5.648 .913.215 1.123,1.134 2.255,1.13h1.126v1.13c3.109.271 3.438,3.331 4.508,5.649-4.348,2.543-5.208-1.334-10.143-1.131v-1.13z" fill="#f8f8f8" fill-rule="evenodd"/>
 <path d="m245.585,333.877c4.435,1.809.394-4.879 3.382-4.52v24.854c-.005,4.516-4.118,4.91-5.636,7.908-.958-.207-1.062.441-1.126,1.13-4.362-5.399 6.705-9.761 2.253-20.335 1.743-1.642.993-5.784 1.127-9.037z" fill="#fff" fill-rule="evenodd"/>
 <path d="m244.458,342.915c4.452,10.574-6.615,14.936-2.253,20.335 .063-.688.168-1.337 1.126-1.13-.337,4.596-11.421,4.314-14.649,2.26h5.636c2.676-1.202-2.416-5.203 1.127-6.778-.834,5.773 3.647,4.592 4.507,1.129 .84-3.477-3.093-2.171-2.254-5.648 2.355.479 2.984-.774 4.508-1.13 .183-1.312-.249-2.01-1.127-2.258-.821-3.083 2.238-2.275 2.253-4.521-.183-1.314.249-2.009 1.126-2.259z" fill="#f8f8f8" fill-rule="evenodd"/>
 <path d="m230.937,344.044c3.332-1.931 10.282-.236 9.015-6.779-2.613-.36-4.326.183-5.634,1.13-.005-1.134.913-1.345 1.127-2.259 4.363-.521 6.85-2.924 6.761-7.908-2.107-4.436.499-11.559 3.38-5.648 .413,5.214 1.388,6.501 0,11.298-.134,3.253.616,7.395-1.127,9.037-.877.25-1.309.945-1.127,2.259-1.003.501-2.015.992-2.253,2.26-5.172-.292-5.444-1.201-10.142,0-1.753-.296-.782-2.479 0-3.39z" fill-rule="evenodd"/>
 <path d="m241.078,349.694c-3.55-.547-2.552,3.467-6.761,2.258-.478,2.362.772,2.991 1.127,4.52-4.894.387-2.171-6.861-4.508-9.038 4.697-1.201 4.97-.292 10.142,0 .238-1.268 1.25-1.759 2.253-2.26-.015,2.244-3.074,1.437-2.253,4.52z" fill="#e7e7e7" fill-rule="evenodd"/>
 <path d="m90.078,86.467c1.724,3.472-7.358,3.472-5.635,0 .875-1.005 1.212-2.551 1.127-4.52 1.224.28.765,2.247 2.254,2.26 1.004.502 2.016.993 2.254,2.26z" fill="#b0b0b0" fill-rule="evenodd"/>
 <path d="m10.07,157.64c.391-6.387-1.301-14.862 2.254-18.076-.312,8.562-.637,10.864-1.127,18.076h-1.127z" fill="#c1c1c1" fill-rule="evenodd"/>
 <path d="m11.197,157.64c2.886,1.249 2.213,6.066 2.254,10.167-5.117,2.024-.833-6.383-3.381-10.167h1.127z" fill="#e7e7e7" fill-rule="evenodd"/>
 <path d="m255.73 220.9c1.389 3.194 1.389 6.972 0 10.166-1.864-0.858-1.864-9.309 0-10.166z" fill="#9e9e9e" fill-rule="evenodd"/>
 <path d="m83.317,260.444c.544-3.558-3.458-2.557-2.254-6.777v-1.13c.741-3.384 2.409,1.081 4.507,0 .192,1.689-.402,4.169 1.127,4.52-1.1,1.154-2.227,2.284-3.38,3.387z" fill="#e0e0e0" fill-rule="evenodd"/>
 <path d="m97.966,272.873c4.596-2.388-.034-7.001 5.634-7.909 .248,3.638-1.993,4.78-1.127,9.038h-1.127c-1.819.318-1.939-1.068-3.38-1.129z" fill-rule="evenodd"/>
 <path d="m78.81,270.613c.636-2.751.964-5.812 4.507-5.649 2.457,2.361-.563,3.225 0,6.779-1.498,1.466-4.193,1.489-4.507-1.13z" fill-rule="evenodd"/>
 <path d="m218.541,290.947c-2.701.448.625-5.146-3.381-3.389-2.131-.253-2.486,1.272-4.508,1.13-1.416-6.567 11.414-1.607 15.776-5.649-.773,4.497-7.84,2.683-7.887,7.908z" fill="#e7e7e7" fill-rule="evenodd"/>
 <path d="m90.078,297.725c.317,2.955-.412,4.86-3.38,4.52-.315-2.953-.381-5.654 3.38-4.52z" fill-rule="evenodd"/>
 <path d="m205.02 298.86c-4.638 2.984-1.471-7.728 2.254-6.778 0.192 3.205-3.812 2.205-2.254 6.778z" fill="#e7e7e7" fill-rule="evenodd"/>
 <path d="m246.713,309.022c3.362-1.349 3.831-.311 6.761,1.13 1.375,3.289 5.126,8.444 2.254,12.428h-5.634c-1.833-5.663.203-8.99-3.381-13.558z" fill-rule="evenodd"/>
 <path d="m83.317,292.077c-2.312,5.1 3.073,8.438 0,14.687 17.873,3.166 21.388-17.672 23.664-33.891 4.986,17.423-5.195,27.462-9.015,37.279-3.755-2.363-8.739,2.07-13.523,2.26-2.814,11.512-28.276,11.864-34.933,3.389 8.389,2.505 18.846.505 25.918,2.261 4.551-6.087 8.218-21.121 1.127-25.984 1.326-.176 3.199.194 3.381-1.13 5.104,1.729-.598-7.377 4.507-5.647 .818,3.453-1.943,3.321-1.126,6.776z" fill-rule="evenodd"/>
 <path d="m235.444,356.471c-.354-1.528-1.604-2.157-1.127-4.52 4.209,1.209 3.211-2.805 6.761-2.258 .878.248 1.31.945 1.127,2.258-1.523.355-2.152,1.609-4.508,1.13-.839,3.478 3.094,2.172 2.254,5.648-.859,3.463-5.341,4.645-4.507-1.129v-1.129z" fill-rule="evenodd"/>
 <path d="m147.55 358.73h13.522c-1.943 1.874-11.578 1.874-13.522 0z" fill="#9e9e9e" fill-rule="evenodd"/>
 <path d="m309.816,49.187c-.731,5.668 1.477,14.284-1.127,18.076-.162-7.08-1.443-12.013 1.127-18.076z" fill="#c8c8c8" fill-rule="evenodd"/>
 <path d="m244.458,297.725c3.483-.274 1.905-5.622 6.762-4.519 1.953,3.847-.865,6.626 0,12.427-3.074-.102-2.268,1.882-4.507,0-3.455-2.262-.257-4.184-2.255-7.908z" fill-rule="evenodd"/>
</svg>
