<?xml version="1.0" encoding="utf-8"?>
<!-- Generator: Adobe Illustrator 21.0.2, SVG Export Plug-In . SVG Version: 6.00 Build 0)  -->
<svg version="1.1" id="Capa_2" xmlns:x="&ns_extend;" xmlns:i="&ns_ai;" xmlns:graph="&ns_graphs;"
	 xmlns="http://www.w3.org/2000/svg" xmlns:xlink="http://www.w3.org/1999/xlink" x="0px" y="0px" width="1920px" height="1080px"
	 viewBox="0 0 1920 1080" enable-background="new 0 0 1920 1080" xml:space="preserve">
<metadata>
	<sfw  xmlns="&ns_sfw;">
		<slices></slices>
		<sliceSourceBounds  bottomLeftOrigin="true" height="795.4" width="968.1" x="479.9" y="-947.7"></sliceSourceBounds>
	</sfw>
</metadata>
<path fill="none" stroke="#000000" stroke-width="5.6693" stroke-linecap="round" stroke-linejoin="round" stroke-miterlimit="10" d="
	M1226.7,246.6c16.9-2.1,33.8-4.2,50.7-6.2c-5.1,2.6-10.1,5.1-15.2,7.7c8.1-1.3,16.5-0.3,24.1,2.9c-2.8,0.7-5.6,1.3-8.5,2
	c8.9,2.1,17.8,4.1,26.7,6.2"/>
<path fill="none" stroke="#000000" stroke-width="5.6693" stroke-linecap="round" stroke-linejoin="round" stroke-miterlimit="10" d="
	M1308.9,263.3c15.1-5.1,28.8-13.6,42.3-21.9c13.5-8.4,27.2-16.9,42.2-22.2c15-5.3,31.8-7.2,46.9-2.2c-3.2-0.1-6.3-0.3-9.5-0.4
	c5.8,1.1,11.2,4.7,14.3,9.8c-1.1-0.5-2.2-1.1-3.3-1.6c-3.1,39.3-22.8,75.2-42,109.7c-3.5,6.4-7.8,13.3-14.9,15.1"/>
<path fill="none" stroke="#000000" stroke-width="5.6693" stroke-linecap="round" stroke-linejoin="round" stroke-miterlimit="10" d="
	M1342.2,271.4c12.4-17.8,29.3-32.4,48.7-42c9-4.5,19.8-7.9,29-3.7c-2.3,1-4.6-2.4-3.3-4.5c1.3-2.1,4.5-2.4,6.7-1.2
	c2.2,1.2,3.6,3.4,4.9,5.5"/>
<path fill="none" stroke="#000000" stroke-width="5.6693" stroke-linecap="round" stroke-linejoin="round" stroke-miterlimit="10" d="
	M1344.5,276.9c9.9-2,20.1-2.9,30.2-2.5c-3.3,1.3-6.6,2.7-9.2,5s-4.5,5.8-3.9,9.3c-0.9-1.8,0.1-4.2,2-4.9c1.9-0.7,4.2,0.5,4.7,2.5
	c0.2,0.9,0.1,1.8,0,2.6c-0.4,3-0.7,6-1.1,9c1.5-2.5,5.7-2.6,7.3-0.1c1.9,3.1-0.3,7.9,2.3,10.4"/>
<path fill="none" stroke="#000000" stroke-width="5.6693" stroke-linecap="round" stroke-linejoin="round" stroke-miterlimit="10" d="
	M1384.3,346.9c8.7,23.4,7.6,50.2-2.9,72.9c-0.9-2.4-1.8-4.9-2.7-7.3c-2.5,9.3-7.3,17.9-13.7,25c0.2-1.7,0.3-3.4,0.5-5.1
	c-11.6,19.9-29.8,36-51.1,44.9"/>
<path fill="none" stroke="#000000" stroke-width="5.6693" stroke-linecap="round" stroke-linejoin="round" stroke-miterlimit="10" d="
	M1219.4,246.6c-21.5-25.9-43-51.7-64.5-77.6c-3.3-3.9-6.6-7.9-10.8-10.7c-4.3-2.8-9.7-4.2-14.5-2.6c-7.8,2.6-11.1,11.7-12.8,19.8
	c-6.4,29.6-6,60.7,1.3,90.1c-2.3-0.9-4.7-1.7-7-2.6c0,12.1,4.3,24.2,11.9,33.7"/>
<path fill="none" stroke="#000000" stroke-width="5.6693" stroke-linecap="round" stroke-linejoin="round" stroke-miterlimit="10" d="
	M1129.5,170.6c4.2-2,9.3-1.6,13.5,0.2c4.3,1.8,7.9,4.8,11.3,8c18.8,17.6,31.8,41.2,36.8,66.5c-5.8-1.8-11.5-3.7-17.3-5.5
	c1.8,3.3,3.6,6.6,5.4,9.9c-3.5,0.9-6.8,2.4-9.8,4.5c-0.8,0.5-1.5,1.1-2.2,1.6c-8.6,6.4-17.1,12.8-25.7,19.1
	c-1.2-2.5-5.4-1.6-6.6,0.9c-1.2,2.5-0.5,5.4,0.3,8"/>
<path fill="none" stroke="#000000" stroke-width="5.6693" stroke-linecap="round" stroke-linejoin="round" stroke-miterlimit="10" d="
	M1154.8,335.7c8.6-6.2,20.2-8.2,30.4-5.4c11.5,3.2,21,12.4,25.6,23.5c4.6,11.1,4.5,23.8,0.8,35.2"/>
<path fill="none" stroke="#000000" stroke-width="5.6693" stroke-linecap="round" stroke-linejoin="round" stroke-miterlimit="10" d="
	M1172.8,330.7c-8.4,6.2-12.8,17.3-11.1,27.6c1.7,10.3,9.6,19.3,19.5,22.4c9.9,3.1,21.5,0.3,28.8-7.2"/>
<path fill="none" stroke="#000000" stroke-width="5.6693" stroke-linecap="round" stroke-linejoin="round" stroke-miterlimit="10" d="
	M1274.8,392.6c2.8-10.1,6.1-20.5,13-28.4c6.9-7.9,18.3-12.8,28.1-9.1c7.5,2.8,12.5,9.8,16.8,16.6"/>
<path fill="none" stroke="#000000" stroke-width="5.6693" stroke-linecap="round" stroke-linejoin="round" stroke-miterlimit="10" d="
	M1276.5,388.8c6.5,12.3,22.6,18.5,35.7,13.8c13.1-4.8,21.4-19.9,18.4-33.5"/>
<path fill="none" stroke="#000000" stroke-width="5.6693" stroke-linecap="round" stroke-linejoin="round" stroke-miterlimit="10" d="
	M1302.7,360.9c-4.2,4.8-6.7,11.1-6.8,17.5s2.1,12.8,6.2,17.7c4.6-4.5,7.4-10.7,7.8-17.1s-1.5-12.9-5.4-18c-5.5,9.1-6.7,20.7-3,30.7
	c4.9-7.6,6.2-17.5,3.3-26.1c-3.6,6.4-4.2,14.3-1.8,21.3"/>
<path fill="none" stroke="#000000" stroke-width="5.6693" stroke-linecap="round" stroke-linejoin="round" stroke-miterlimit="10" d="
	M1189.7,339.6c-7.8,7.2-11.9,18.3-10.5,28.8c0.1,1.1,0.5,2.4,1.5,3c1.1,0.6,2.4,0.1,3.5-0.5c7.5-3.9,13.2-11.1,15.2-19.4
	c0.4-1.9,0.7-3.8,0.2-5.7c-0.5-1.8-2-3.5-3.9-3.8c-2.7-0.4-4.9,2-6.3,4.3c-4.1,6.4-6.4,13.9-6.6,21.5c6.6-4.9,11.6-11.8,14.2-19.7
	c0.3-1,0.6-2.3-0.1-3.1c-0.6-0.7-1.7-0.7-2.6-0.3c-0.8,0.4-1.4,1.1-2,1.9c-3.6,4.7-6.2,10.1-7.7,15.8"/>
<path fill="none" stroke="#000000" stroke-width="5.6693" stroke-linecap="round" stroke-linejoin="round" stroke-miterlimit="10" d="
	M1215,423.4c-3.1,0.2-5.3,3.6-5.3,6.8s1.5,6.1,3,8.9c2.1,4,4.3,8.1,6.4,12.1c1.7,3.2,3.8,6.7,7.4,7.3c2.8,0.5,5.4-1,7.8-2.5
	c4.4-2.7,8.8-5.3,13.1-8c2.3-1.4,4.6-2.8,6.2-5s2-5.3,0.4-7.5c-1.3-1.8-3.7-2.5-6-2.4c-2.2,0.1-4.4,0.8-6.6,1.3
	c-10.6,2.2-22.4-2.4-28.6-11.3"/>
<path fill="none" stroke="#000000" stroke-width="5.6693" stroke-linecap="round" stroke-linejoin="round" stroke-miterlimit="10" d="
	M1216.8,429c-1.6,1.9-3.2,3.8-4.8,5.7c2.4-1.1,4.8-2.2,7.2-3.3c-1.8,2.6-3.6,5.3-5.4,7.9c2.6-1.5,5.2-3.1,7.9-4.6
	c-2.1,3-4.2,6.1-6.2,9.1c4.5-2.2,9.1-4.5,13.6-6.7c-4,3.8-8,7.6-12.1,11.3c6.9-3.9,13.8-7.7,20.7-11.6c-5.1,4.3-10.3,8.6-15.4,12.9
	c7-3.5,14-7.1,21-10.6c-5.9,4.5-11.8,9-17.7,13.5c6.3-3.1,12.6-6.1,18.9-9.2c1.1-0.5,2.2-1.1,2.9-2c0.8-0.9,1.1-2.3,0.4-3.3
	c-0.6-1-2-1.2-3.1-0.9c-1.1,0.3-2,1-2.9,1.7"/>
<path fill="none" stroke="#000000" stroke-width="5.6693" stroke-linecap="round" stroke-linejoin="round" stroke-miterlimit="10" d="
	M1223.2,460.3c-0.4,5.7-5.1,10.4-10.6,12c-5.4,1.7-11.3,0.8-16.7-1c-11.4-3.8-21.3-11.8-27.4-22.1"/>
<path fill="none" stroke="#000000" stroke-width="5.6693" stroke-linecap="round" stroke-linejoin="round" stroke-miterlimit="10" d="
	M1222.4,461.8c4.1,10.3,13.7,17.7,24.2,21.2c21.8,7.3,47.9-1.3,61-20.2c3.1-4.5,5.6-9.6,8.9-13.9c5.2-6.8,12.7-11.8,20.9-14.2"/>
<path fill="none" stroke="#000000" stroke-width="5.6693" stroke-linecap="round" stroke-linejoin="round" stroke-miterlimit="10" d="
	M1123.6,398.1c3,0,6.1,0,9.1-0.1c-0.1,0.3-0.2,0.6-0.3,0.9"/>
<path fill="none" stroke="#000000" stroke-width="5.6693" stroke-linecap="round" stroke-linejoin="round" stroke-miterlimit="10" d="
	M1108.5,304.7c-8.8,10.6-17.6,21.1-26.5,31.7c5.2-1.7,10.4-3.4,15.6-5.1c-5.8,6.9-10.3,15-13.2,23.5c3.1-1.7,6.1-3.3,9.2-5
	c-2.5,9.5-5,19-7.5,28.6c3.4-1.6,6.8-3.2,10.2-4.8c-1.6,4.6-3.3,9.1-4.9,13.7c-0.6,1.6-1.1,3.2-0.9,4.8s1.4,3.3,3,3.5
	c1.7,0.2,3.2-1.9,2.3-3.2c-4.6,8.2-2.5,19.6,4.8,25.6c0.8,0.6,1.6,1.2,2.4,1.8c1.7,1.2,3.3,2.4,5,3.6c5.2,3.7,10.4,7.4,15.9,10.6
	c12.7,7.5,27,12.4,41.7,14.4"/>
<path fill="none" stroke="#000000" stroke-width="5.6693" stroke-linecap="round" stroke-linejoin="round" stroke-miterlimit="10" d="
	M1105.5,265.7c-6.2-4.4-14.1-6.3-21.7-5.3c3.3,2.3,6.5,4.7,9.8,7c-5.3,0.8-10.6,1.5-15.8,2.3c3.3,1.7,6.7,3.4,10,5.2
	c-4.7,1.3-9.3,2.6-14,3.9c-2.2,0.6-4.8,1.7-4.9,3.9c-0.1,1.7,1.4,3.3,3.1,3.7c1.7,0.4,3.5,0,5.2-0.4c-7.6,3.3-14.5,8.2-20.2,14.3
	c3.7-1.1,7.5-2.2,11.2-3.4c-2.7,3.1-5.5,6.2-8.2,9.4"/>
<path fill="none" stroke="#000000" stroke-width="5.6693" stroke-linecap="round" stroke-linejoin="round" stroke-miterlimit="10" d="
	M1059.6,306.3c0.1,31.1,10.6,62.2,29.6,86.9"/>
<path fill="none" stroke="#000000" stroke-width="5.6693" stroke-linecap="round" stroke-linejoin="round" stroke-miterlimit="10" d="
	M1064.4,303.2c2.7,24,10.4,47.3,22.4,68.3"/>
<path fill="none" stroke="#000000" stroke-width="5.6693" stroke-linecap="round" stroke-linejoin="round" stroke-miterlimit="10" d="
	M1122,434.3c15.9,17.2,37.7,28.8,60.8,32.3"/>
<path fill="none" stroke="#000000" stroke-width="5.6693" stroke-linecap="round" stroke-linejoin="round" stroke-miterlimit="10" d="
	M1249.4,486.7c37.3,26.6,76.9,50,118.1,70"/>
<path fill="none" stroke="#000000" stroke-width="5.6693" stroke-linecap="round" stroke-linejoin="round" stroke-miterlimit="10" d="
	M1259.5,486.7c24.6,14.1,49,28.5,73.1,43.3c10.9,6.6,21.7,13.4,32.4,20.3"/>
<path fill="none" stroke="#000000" stroke-width="5.6693" stroke-linecap="round" stroke-linejoin="round" stroke-miterlimit="10" d="
	M1336.7,428c4.1,1.7,6.6,6.7,5.4,10.9"/>
<path fill="none" stroke="#000000" stroke-width="5.6693" stroke-linecap="round" stroke-linejoin="round" stroke-miterlimit="10" d="
	M1306.3,478.5c-5.1,1.7-9.7,5.1-12.9,9.5c-0.8,1.1-1.6,2.3-2.7,3.2c-1.1,0.9-2.6,1.3-3.9,0.8c-1.3-0.6-1.8-2.5-0.8-3.5
	c-2.1,1.6-4.2,3.2-6.4,4.8"/>
<path fill="none" stroke="#000000" stroke-width="5.6693" stroke-linecap="round" stroke-linejoin="round" stroke-miterlimit="10" d="
	M1261.1,497.5c-20,9.1-43.8,9.6-64.1,1.3c0.9,2,1.8,4,2.6,6c-12.5-2.1-25-4.3-37.6-6.4c-1.2-0.2-2.5-0.5-3-1.6
	c-0.5-1,0.8-2.6,1.7-1.9c-17.9,1.1-35.5-12.7-38.8-30.3"/>
<path fill="none" stroke="#000000" stroke-width="5.6693" stroke-linecap="round" stroke-linejoin="round" stroke-miterlimit="10" d="
	M1074.8,279.8c-25.6,0.4-49.4,16.7-62.1,38.9c-12.7,22.2-14.9,49.4-9.4,74.3s18.3,47.8,33.9,68.1c29.3,38,71.2,68.5,118.8,74.1"/>
<path fill="none" stroke="#000000" stroke-width="5.6693" stroke-linecap="round" stroke-linejoin="round" stroke-miterlimit="10" d="
	M1071.6,273c-28,2.1-53.3,20.7-66.8,45.3c-13.6,24.5-16.2,54.2-10.8,81.7s18.3,53.1,34.2,76.2c11.3,16.5,24.4,32.2,41.4,42.7
	c24,15,53.3,18.4,81.4,21.5"/>
<path fill="none" stroke="#000000" stroke-width="5.6693" stroke-linecap="round" stroke-linejoin="round" stroke-miterlimit="10" d="
	M1130.8,542.9c41.3-4.4,83.1-4.7,124.5-1"/>
<path fill="none" stroke="#000000" stroke-width="5.6693" stroke-linecap="round" stroke-linejoin="round" stroke-miterlimit="10" d="
	M1247.9,546c20-6.7,40-13.4,60-20.1"/>
<path fill="none" stroke="#000000" stroke-width="5.6693" stroke-linecap="round" stroke-linejoin="round" stroke-miterlimit="10" d="
	M1321.7,520.1c14.8-8.3,32.7-11.1,49.4-7.6"/>
<path fill="none" stroke="#000000" stroke-width="5.6693" stroke-linecap="round" stroke-linejoin="round" stroke-miterlimit="10" d="
	M1356.1,517.5c6.5-2.1,13.6-3.2,20.3-1.8c6.7,1.5,13,5.9,15.5,12.3c2.5,6.4,0.2,14.7-5.9,17.9"/>
<path fill="none" stroke="#000000" stroke-width="5.6693" stroke-linecap="round" stroke-linejoin="round" stroke-miterlimit="10" d="
	M1349.8,531.7c9.5,0.1,19,2.9,27,8.1c3.3,2.2,6.7,5.5,6.1,9.4c-0.6,3.9-4.8,6-8.4,7.5"/>
<path fill="none" stroke="#000000" stroke-width="5.6693" stroke-linecap="round" stroke-linejoin="round" stroke-miterlimit="10" d="
	M1342.3,551.6c6.7,0.6,13.6,1.3,19.5,4.6c5.9,3.3,10.5,9.8,9.3,16.5c-0.8,4.6-4.2,8.4-8.2,10.7c-4,2.3-8.6,3.4-13.2,4.2"/>
<path fill="none" stroke="#000000" stroke-width="5.6693" stroke-linecap="round" stroke-linejoin="round" stroke-miterlimit="10" d="
	M1315.7,569.9c11.9,1,25.2,8,26.3,19.8c0.9,10.5-8.6,19.5-18.9,21.8c-10.2,2.3-20.9-0.5-31-3.2c-6,8.6-17,13.3-27.3,11.6
	c-8,3.7-16.6,5.6-25.2,7.5c-39.5,8.8-79,17.5-118.6,26.3c-15.5,3.4-31.1,6.9-47,7.8c-36.8,2-73.6-10.2-104-31
	c3.4,1.9,6.8,3.9,10.2,5.8c-2.9-3.8-5.7-7.6-8.6-11.5c2.7,1.2,5.3,2.4,8,3.6c-2.2-4.7-4.4-9.4-6.6-14.1c2.5,1.9,4.9,3.7,7.4,5.6
	c0.7-11.1,1.4-22.2,2.1-33.4c0.9-12,4.9-23.7,11.4-33.8c-2.7,1.2-5.4,2.4-8.1,3.6c3.1-8.8,6.2-17.5,9.4-26.3
	c-7.4,3.2-16.9-5.1-14.6-12.8"/>
<path fill="none" stroke="#000000" stroke-width="5.6693" stroke-linecap="round" stroke-linejoin="round" stroke-miterlimit="10" d="
	M1272.8,506.5c-0.6,9.1-1.1,18.2-1.7,27.3"/>
<path fill="none" stroke="#000000" stroke-width="5.6693" stroke-linecap="round" stroke-linejoin="round" stroke-miterlimit="10" d="
	M1282.5,507.4c0.4,8.7,0.9,17.3,1.3,26"/>
<path fill="none" stroke="#000000" stroke-width="5.6693" stroke-linecap="round" stroke-linejoin="round" stroke-miterlimit="10" d="
	M1303.1,614.9c-68.1,24.5-136.3,49-204.4,73.6c-31.1,11.2-62.3,22.4-91.9,37.3c-33.1,16.6-63.7,37.5-95.9,55.7
	c-40.4,22.8-83.3,41.4-127.7,55.1"/>
<path fill="none" stroke="#000000" stroke-width="5.6693" stroke-linecap="round" stroke-linejoin="round" stroke-miterlimit="10" d="
	M1262.5,627c-2.7,13.4-8.7,27.5-21,33.5c-8.3,4.1-18.1,3.6-27.4,2.9c-25.7-2-51.2-5.5-76.5-10.6"/>
<path fill="none" stroke="#000000" stroke-width="5.6693" stroke-linecap="round" stroke-linejoin="round" stroke-miterlimit="10" d="
	M1133.4,653c20.4,8.6,36.9,26.8,58.8,29.9c17.4,2.5,35.9-6.1,45.1-21.1"/>
<path fill="none" stroke="#000000" stroke-width="5.6693" stroke-linecap="round" stroke-linejoin="round" stroke-miterlimit="10" d="
	M756.3,805.3c-2.4-2.6-4.8-5.3-7.3-7.9c-9.7,13.2-30.3,16.8-43.9,7.6c-2.5-1.7-4.8-3.8-5.9-6.6c-1.1-2.8-0.8-6.3,1.4-8.3
	c2.8-2.6,7.4-1.9,10.4,0.5c3,2.3,4.7,5.9,6.4,9.3c1.7,3.4,3.7,6.8,6.9,8.8c5.1,3.1,11.6,1.5,17-0.7s11-5.2,16.9-4.6
	c2.4,0.2,4.8,1.1,6.3,3s1.7,4.8,0.1,6.5c-2.1,2.2-5.8,1.5-8.6,0.2c-2.8-1.2-6-2.7-8.8-1.4c-3.4,1.6-3.7,6.9-1,9.6
	c2.7,2.7,7,2.9,10.6,1.6s6.4-3.9,9.2-6.5c2.6,1.4,0.8,5.7-2,6.7c-2.8,1-5.9,0.2-8.8,0.8c-2.9,0.6-5.6,4.1-3.6,6.3
	c1.9,2.1,5.3,0.5,7.7-1.1c9.9-6.2,22-7.6,33.6-8.8c13.2-1.4,26.4-2.7,39.6-4.1c3.1-0.3,6.2-0.6,9.2,0.2c3,0.8,5.8,3,6.5,6
	c0.7,3.1-1.1,6.4-3.6,8.4c-2.5,2-5.7,3-8.8,3.9c-24.6,7.7-48.5,17.5-71.4,29.4c-5.4,2.8-10.9,5.8-14.6,10.6
	c-3.8,4.8-5.4,11.7-2.5,17c4,7.2,14.1,8.1,22.2,6.6c15.9-2.9,30.1-11.3,45.4-16.7c15.2-5.4,33.3-7.3,46.6,2c4.1,2.9,7.9,8,5.9,12.7
	c-1.8,4.2-7,5.4-11.5,5.8c-11.7,0.9-24.2-1.1-33.1-8.7c-8.9-7.6-12.5-22-5.7-31.4c1.7-2.4,3.9-4.3,5.6-6.7c1.7-2.4,2.7-5.5,1.6-8.2
	c-1.9-4.6-8.1-5.1-13.1-4.7c-15.1,1.2-30.4,3.2-45.4,1c-15-2.2-30.1-9.4-37.9-22.4c-1.2,4.3,0.6,9.1,3.7,12.3s7.4,5.2,11.6,6.6
	c28.8,9.9,62.3,2.2,89.4,16c3.5,1.8,7.3,5,6.2,8.8c-1,3.4-5.6,4.4-8.8,2.9c-3.2-1.5-5.2-4.7-7-7.7"/>
<path fill="none" stroke="#000000" stroke-width="5.6693" stroke-linecap="round" stroke-linejoin="round" stroke-miterlimit="10" d="
	M1034.9,282.8c-57.3,2.6-113.7,23.1-159.3,58c5.7-2.3,11.5-4.6,17.2-6.9c-14.2,9.1-28.4,18.1-42.6,27.2c5.5-1.9,10.9-3.8,16.4-5.7
	c-10.1,9.1-20.1,18.1-30.2,27.2c5.1-2.6,10.2-5.2,15.3-7.7c-33.3,31.1-56.5,72.8-65.4,117.5c3.2-4,6.4-7.9,9.6-11.9
	c-3,10.2-6.1,20.4-9.1,30.6c1.6-1.2,3.2-2.3,4.8-3.5c-1.4,12.3-2.7,24.5-4.1,36.8c-0.3,11.9-0.7,23.8-1,35.7"/>
<path fill="none" stroke="#000000" stroke-width="5.6693" stroke-linecap="round" stroke-linejoin="round" stroke-miterlimit="10" d="
	M793.4,572.7c-12.8,25.9-25.3,52.2-33.2,79.9c-8,27.8-11.3,57.3-5.6,85.7"/>
<path fill="none" stroke="#000000" stroke-width="5.6693" stroke-linecap="round" stroke-linejoin="round" stroke-miterlimit="10" d="
	M761.9,751.7c-5.6,6.3-9.1,14.4-9.8,22.7c2.2-3.5,4.4-7.1,6.6-10.6c-0.5,9-1,18-1.6,27c0.8-0.7,1.6-1.4,2.3-2.1c1.3,3,2.7,6,4,9"/>
<path fill="none" stroke="#000000" stroke-width="5.6693" stroke-linecap="round" stroke-linejoin="round" stroke-miterlimit="10" d="
	M836.5,807.8c0.8-3.3,5.5-4.1,8.4-2.4c2.9,1.7,4.7,4.8,6.6,7.5s4.8,5.4,8.2,5.3c2.8-0.1,5.3-2.2,8.1-2.4c3.1-0.2,5.9,1.8,7.6,4.4
	c1.6,2.6,2.3,5.7,2.9,8.7c1.4-1.7,2.9-3.4,4.3-5.1c1.1,4.2,3.9,7.9,7.8,9.9c1.9,1,3.9,1.6,6,2.2c3.7,1.1,7.4,2.2,11.1,3.2
	c2.9,0.8,5.8,1.7,8.2,3.5c2.4,1.8,4.2,4.6,3.9,7.6c1.5-2.1,3-4.1,4.5-6.2"/>
<path fill="none" stroke="#000000" stroke-width="5.6693" stroke-linecap="round" stroke-linejoin="round" stroke-miterlimit="10" d="
	M930.5,841.6c-1,8.5-2.1,17.1-3.1,25.6c7.2-4.8,14.3-9.7,21.5-14.5c-2.2,7.1-6.8,13.4-13,17.6c12.2-2,23.8-7.1,33.6-14.7
	c-1.2,3.6-2.4,7.3-3.6,10.9c8.8-3.8,18.8-3.2,28.2-4.6s19.8-5.9,22.7-15c-7.3,3.1-15.7,3.5-23.3,1.3c11.9-5.1,23.8-10.1,35.7-15.2
	c-7.7,0.4-15.4,0.8-23.1,1.2c10-6,20-12,29.9-18c-4.9,0.8-9.8,1.6-14.7,2.3c2.7-3.2,5.3-6.3,8-9.5c-1.1,3.3-5.9,4-8.6,2
	c-2.7-2.1-3.6-6-3-9.4c0.5-3.4,2.1-6.5,3.5-9.7s2.4-6.6,1.8-10"/>
<path fill="none" stroke="#000000" stroke-width="5.6693" stroke-linecap="round" stroke-linejoin="round" stroke-miterlimit="10" d="
	M850.3,834c2.5,7.5,3.5,15.5,3,23.4c-0.2,3.2-0.7,6.5-0.5,9.7c0.2,3.2,1.2,6.6,3.4,8.9c2.3,2.3,6,3.4,8.9,1.8"/>
<path fill="none" stroke="#000000" stroke-width="5.6693" stroke-linecap="round" stroke-linejoin="round" stroke-miterlimit="10" d="
	M873,846.6c2.2,5.6,0.8,11.9-1,17.6s-3.6,11.8-2.2,17.7c1.9,7.3,9.6,12.6,17.1,11.8c7.5-0.9,13.8-7.8,14-15.3"/>
<path fill="none" stroke="#000000" stroke-width="5.6693" stroke-linecap="round" stroke-linejoin="round" stroke-miterlimit="10" d="
	M899.8,851.8c2.3,6.7,2.9,14,1.9,21c-0.7,5-2.1,10.8,1.1,14.8c3.1,3.9,9.1,3.9,13.7,2c5.3-2.2,9.7-6.5,12-11.8
	c2.3-5.3,2.4-11.4,0.3-16.8"/>
<path fill="none" stroke="#000000" stroke-width="5.6693" stroke-linecap="round" stroke-linejoin="round" stroke-miterlimit="10" d="
	M1013.3,841.7c7.1,3.7,15.6-0.1,23.3-2.6c15.9-5.3,33.6-4.7,49.1,1.6c-0.3-0.7-0.7-1.5-1-2.2"/>
<path fill="none" stroke="#000000" stroke-width="5.6693" stroke-linecap="round" stroke-linejoin="round" stroke-miterlimit="10" d="
	M1070.5,818.9c12.1,8.4,29.1,9,41.8,1.6c-6.8,4.4-15.1,6.3-23.1,5.1c10.5-0.4,20.9-4.2,29.3-10.5c-5.2,2.5-11.8,2-16.5-1.3
	c7-2.8,14-5.6,21-8.4c-1.8-2-5-2.5-7.3-1.2c3.9-2.6,7.9-5.3,11.8-7.9"/>
<path fill="none" stroke="#000000" stroke-width="5.6693" stroke-linecap="round" stroke-linejoin="round" stroke-miterlimit="10" d="
	M1110.6,695.7c6.6,4.6,11.2,11.6,14.1,19.1c2.9,7.5,4.4,15.4,5.7,23.4c6.3,37.8,11,75.8,14,114c1,12.5,2.1,25.8,9.8,35.6"/>
<path fill="none" stroke="#000000" stroke-width="5.6693" stroke-linecap="round" stroke-linejoin="round" stroke-miterlimit="10" d="
	M1154.9,893.1c-1.5,8.5,2.5,17.2,8.4,23.5c5.9,6.3,13.6,10.5,21.2,14.7c4.5,2.5,9.8,5,14.6,3c4.2-1.8,6.2-6.6,6.9-11.1
	c1.8-10.9-1.9-22.6-9.6-30.6"/>
<path fill="none" stroke="#000000" stroke-width="5.6693" stroke-linecap="round" stroke-linejoin="round" stroke-miterlimit="10" d="
	M1205.3,937.3c5.6,2.9,11.3,5.9,17.5,7c6.2,1.2,13.1,0.4,18-3.6c3.8-3.1,6.1-7.8,7.2-12.6c2-8.7,0.5-18.1-4-25.8
	c-4.5-7.7-12.1-13.5-20.7-15.9"/>
<path fill="none" stroke="#000000" stroke-width="5.6693" stroke-linecap="round" stroke-linejoin="round" stroke-miterlimit="10" d="
	M1249.1,914c4.3-4.8,4.6-12.3,1.7-18c-2.9-5.7-8.4-9.8-14.3-12.1c-6-2.3-12.4-3-18.8-3.5"/>
<path fill="none" stroke="#000000" stroke-width="5.6693" stroke-linecap="round" stroke-linejoin="round" stroke-miterlimit="10" d="
	M1215.3,878.8c-8.8-15.2-16-31.3-21.2-48.1"/>
<path fill="none" stroke="#000000" stroke-width="5.6693" stroke-linecap="round" stroke-linejoin="round" stroke-miterlimit="10" d="
	M1198.1,835c1.9-38.1,3.9-76.2,5.8-114.3c0.7-13.7,1.4-27.3,2.1-41"/>
<path fill="none" stroke="#000000" stroke-width="5.6693" stroke-linecap="round" stroke-linejoin="round" stroke-miterlimit="10" d="
	M1176.7,684.3c-2.9,7.8-8.5,14.5-15.6,18.8c3.6-4.6,5.8-10.3,6.4-16.1c-5.5,7.7-13.3,13.7-22.2,16.9c0.9-4,3.5-7.5,7-9.4
	c-3,1.9-6,3.7-8.9,5.6"/>
<path fill="none" stroke="#000000" stroke-width="5.6693" stroke-linecap="round" stroke-linejoin="round" stroke-miterlimit="10" d="
	M1118.3,829.8c6.5,4,14.3,5.8,21.9,5"/>
<path fill="none" stroke="#000000" stroke-width="5.6693" stroke-linecap="round" stroke-linejoin="round" stroke-miterlimit="10" d="
	M1137.4,805.7c-10.5,16.5-26,29.7-44,37.5c-17.9,7.7-38.2,10-57.4,6.3"/>
<path fill="none" stroke="#000000" stroke-width="5.6693" stroke-linecap="round" stroke-linejoin="round" stroke-miterlimit="10" d="
	M1072.2,838.9c-11.1,3.2-22.2,6.4-33.3,9.5c-8.2,2.4-16.8,4.9-22.9,10.9"/>
<path fill="none" stroke="#000000" stroke-width="5.6693" stroke-linecap="round" stroke-linejoin="round" stroke-miterlimit="10" d="
	M1087.3,837c18.1-10.5,33.6-25.4,44.7-43.1"/>
<path fill="none" stroke="#000000" stroke-width="5.6693" stroke-linecap="round" stroke-linejoin="round" stroke-miterlimit="10" d="
	M1034.8,747.6c11.7-2.9,22.3-10,29.3-19.9c-1.3,1.2-2.6,2.4-4.3,3.1s-3.7,0.6-5-0.6c-1.3-1.2-1.4-3.6,0-4.6c1.8-1.2,4,0.4,6,1.2
	c2.8,1.3,6.2,1,8.9-0.5c2.6-1.6,4.4-4.5,4.6-7.6c2.7-0.2,5.4-0.4,8.1-0.6"/>
<path fill="none" stroke="#000000" stroke-width="5.6693" stroke-linecap="round" stroke-linejoin="round" stroke-miterlimit="10" d="
	M1136.8,656c-87.7,74.5-209.3,107.3-322.6,87.2C737.3,729.5,637,684,578,622"/>
<path fill="none" stroke="#000000" stroke-width="6.8357" stroke-linecap="round" stroke-linejoin="round" stroke-miterlimit="10" d="
	M573.5,619.1c-12.7,8.3-19.4,23.1-23.9,37.6c-12.2,38.6-13.8,80.6-4.7,120"/>
<path fill="none" stroke="#000000" stroke-width="6.8357" stroke-linecap="round" stroke-linejoin="round" stroke-miterlimit="10" d="
	M559.1,628.5c-3.3,22.7-4.3,45.8-2.8,68.8c2.6,40.7,13.7,82.2,40,113.3"/>
<path fill="none" stroke="#000000" stroke-width="6.8357" stroke-linecap="round" stroke-linejoin="round" stroke-miterlimit="10" d="
	M560.5,633c-4.4,66.5,16.4,134.4,57.3,187.1"/>
<path fill="none" stroke="#000000" stroke-width="6.8357" stroke-linecap="round" stroke-linejoin="round" stroke-miterlimit="10" d="
	M568,623.6c-1.9,67.4,17.2,135.3,53.9,191.9"/>
<path fill="none" stroke="#000000" stroke-width="6.8357" stroke-linecap="round" stroke-linejoin="round" stroke-miterlimit="10" d="
	M571.2,623.7c10.3,67.2,28.8,133.1,55.1,195.7"/>
<path fill="none" stroke="#000000" stroke-width="6.8357" stroke-linecap="round" stroke-linejoin="round" stroke-miterlimit="10" d="
	M578.5,623.5c28.8,60.4,48.7,125,59,191.1"/>
<path fill="none" stroke="#000000" stroke-width="6.8357" stroke-linecap="round" stroke-linejoin="round" stroke-miterlimit="10" d="
	M640.6,814.8c-0.6-34.7-3.3-69.7-12.5-103.2c-9.2-33.5-25.3-65.6-50.1-90"/>
<path fill="none" stroke="#000000" stroke-width="6.8357" stroke-linecap="round" stroke-linejoin="round" stroke-miterlimit="10" d="
	M592.7,626.4c2.4,3.8,6.2,6.3,9.9,8.9c34.8,24.7,58.6,64.3,64.1,106.6c2.7,20.8,0.7,43.1-11,60.5"/>
<path fill="none" stroke="#000000" stroke-width="6.8357" stroke-linecap="round" stroke-linejoin="round" stroke-miterlimit="10" d="
	M638.9,814.4c20.3-15.7,35.6-37.8,43.3-62.3c7.6-24.5,7.5-51.4-0.3-75.9"/>
<path fill="none" stroke="#000000" stroke-width="6.8357" stroke-linecap="round" stroke-linejoin="round" stroke-miterlimit="10" d="
	M556.3,627.7c-13.7,5-24.6,16.1-31.2,29.1c-6.5,13-8.9,27.8-8.8,42.4c0.2,23.7,7.1,47.5,20.7,67c13.6,19.4,34,34.3,57,39.9"/>
<path fill="none" stroke="#000000" stroke-width="6.8357" stroke-linecap="round" stroke-linejoin="round" stroke-miterlimit="10" d="
	M559.7,626c-19.2,3.5-35.8,16.7-45.6,33.5s-13.2,36.9-11.9,56.3c1.3,19.4,7.2,38.3,14.8,56.2"/>
<path fill="none" stroke="#000000" stroke-width="6.8357" stroke-linecap="round" stroke-linejoin="round" stroke-miterlimit="10" d="
	M500.9,664.9c-5.7,6.6-8.8,15.2-9.8,23.9c-1,8.7-0.1,17.5,1.7,26.1c5.1,24.9,17.1,48.3,34.2,67.1c17.2,18.7,39.5,32.7,63.8,40"/>
<path fill="none" stroke="#000000" stroke-width="6.8357" stroke-linecap="round" stroke-linejoin="round" stroke-miterlimit="10" d="
	M486.6,690.6c-3.2,28.2,4.1,57.5,20.2,80.8c16.2,23.3,41,40.5,68.5,47.4"/>
<path fill="none" stroke="#000000" stroke-width="6.8357" stroke-linecap="round" stroke-linejoin="round" stroke-miterlimit="10" d="
	M485.9,713.2c-3.6,20.3-4.7,42.1,4.5,60.6c7.5,15,21.1,26.3,36,33.9c14.9,7.6,31.3,11.9,47.5,16.2"/>
<path fill="none" stroke="#000000" stroke-width="6.8357" stroke-linecap="round" stroke-linejoin="round" stroke-miterlimit="10" d="
	M485.1,767.4c9.7-11.4,21.1-21.3,33.6-29.6"/>
<path fill="none" stroke="#000000" stroke-width="6.8357" stroke-linecap="round" stroke-linejoin="round" stroke-miterlimit="10" d="
	M489.5,777.2c8.3-12.4,19.4-23,32.2-30.5"/>
<path fill="none" stroke="#000000" stroke-width="6.8357" stroke-linecap="round" stroke-linejoin="round" stroke-miterlimit="10" d="
	M494,784.8c11.4-9.6,22.8-19.2,34.2-28.8"/>
<path fill="none" stroke="#000000" stroke-width="6.8357" stroke-linecap="round" stroke-linejoin="round" stroke-miterlimit="10" d="
	M541.2,726.9c6.6-3.3,13.2-6.6,19.8-9.9"/>
<path fill="none" stroke="#000000" stroke-width="6.8357" stroke-linecap="round" stroke-linejoin="round" stroke-miterlimit="10" d="
	M539.9,739c9.2-6.1,19.4-10.7,30.1-13.5"/>
<path fill="none" stroke="#000000" stroke-width="6.8357" stroke-linecap="round" stroke-linejoin="round" stroke-miterlimit="10" d="
	M541,755.2c10-5.9,20.7-10.6,31.8-13.7"/>
<path fill="none" stroke="#000000" stroke-width="6.8357" stroke-linecap="round" stroke-linejoin="round" stroke-miterlimit="10" d="
	M625.2,657.7c9.1,28.6,13.8,58.5,13.8,88.5"/>
<path fill="none" stroke="#000000" stroke-width="6.8357" stroke-linecap="round" stroke-linejoin="round" stroke-miterlimit="10" d="
	M642.1,682.1c10.1,34.7,9.1,72.5-2.8,106.6"/>
<path fill="none" stroke="#000000" stroke-width="6.8357" stroke-linecap="round" stroke-linejoin="round" stroke-miterlimit="10" d="
	M663.3,715.7c-0.2,31.4-8.1,62.7-22.9,90.4"/>
<path fill="none" stroke="#000000" stroke-width="6.8357" stroke-linecap="round" stroke-linejoin="round" stroke-miterlimit="10" d="
	M639.8,655.1c24.7,20.4,40.1,51.8,40.9,83.9"/>
<path fill="none" stroke="#000000" stroke-width="6.8357" stroke-linecap="round" stroke-linejoin="round" stroke-miterlimit="10" d="
	M663.5,662.7c14.5,15.4,23.2,36.1,24.1,57.3"/>
<path fill="none" stroke="#000000" stroke-width="6.8357" stroke-linecap="round" stroke-linejoin="round" stroke-miterlimit="10" d="
	M584.4,621.7c17.2-4.7,36-3.2,52.2,4.2c16.2,7.4,29.6,20.7,37.2,36.9"/>
<path fill="none" stroke="#000000" stroke-width="6.8357" stroke-linecap="round" stroke-linejoin="round" stroke-miterlimit="10" d="
	M603.3,630.8c22.5-1.4,45.5,9.4,58.7,27.7"/>
<path fill="none" stroke="#000000" stroke-width="6.8357" stroke-linecap="round" stroke-linejoin="round" stroke-miterlimit="10" d="
	M552.2,646.9c-15.1,6.6-27.8,18.8-35,33.7"/>
<path fill="none" stroke="#000000" stroke-width="6.8357" stroke-linecap="round" stroke-linejoin="round" stroke-miterlimit="10" d="
	M544,662.9c-12.6,7.8-22.4,20.1-27.2,34.1"/>
<path fill="none" stroke="#000000" stroke-width="6.8357" stroke-linecap="round" stroke-linejoin="round" stroke-miterlimit="10" d="
	M541.1,682.9c-11.7,9-18.9,23.7-18.7,38.5"/>
<path fill="none" stroke="#000000" stroke-width="6.8357" stroke-linecap="round" stroke-linejoin="round" stroke-miterlimit="10" d="
	M579.6,807.2c9.7,8.6,23.6,12.3,36.2,9.4"/>
<path fill="none" stroke="#000000" stroke-width="6.8357" stroke-linecap="round" stroke-linejoin="round" stroke-miterlimit="10" d="
	M569.5,829.8c6.2-3.6,13.5-4.5,20.5-5.9c7-1.4,14.3-3.4,19.3-8.6"/>
<path fill="none" stroke="#000000" stroke-width="6.8357" stroke-linecap="round" stroke-linejoin="round" stroke-miterlimit="10" d="
	M580.3,828.6c15.3-2.3,30.2-7,44-13.8"/>
<path fill="none" stroke="#000000" stroke-width="6.8357" stroke-linecap="round" stroke-linejoin="round" stroke-miterlimit="10" d="
	M627.3,819.2c5.4-0.9,10.4-4.2,13.3-8.9"/>
</svg>
