<?xml version='1.0' encoding='utf-8'?>
<svg xmlns="http://www.w3.org/2000/svg" version="1.1" width="220.965" height="275.724"> <defs> <clipPath id="clip_dp_001" clipPathUnits="userSpaceOnUse" clip-rule="nonzero"> <path d="M 233.147,658.2 C 231.769,651.744 234.604,646.955 235.425,645.343 C 235.656,644.907 235.884,644.493 236.115,644.088 C 236.453,643.509 236.283,643.797 236.631,643.223 C 237.003,642.625 236.815,642.924 237.193,642.331 L 237.495,641.884 C 237.748,641.512 238.024,641.112 238.324,640.688 C 239.485,639.076 240.907,637.427 241.853,636.357 C 240.997,642.332 243.475,648.313 247.567,653.139 L 251.376,652.432 C 246.337,648.368 241.795,642.511 242.972,633.939 C 243.788,635.076 245.448,637.864 248.225,641.039 C 251.136,644.133 255.94,647.388 257.564,648.403 C 258.535,648.805 259.693,649.263 261.116,649.695 C 263.399,650.359 264.404,650.536 265.109,650.7 L 267.792,648.864 C 261.759,647.879 256.668,645.296 251.219,641.057 C 249.009,639.408 246.987,637.551 245.212,635.593 C 244.872,635.201 244.541,634.813 244.207,634.415 C 243.844,633.987 243.588,633.771 243.279,633.251 C 242.997,632.643 243.283,632.268 243.377,632.025 L 243.252,632.269 C 243.089,632.597 243.169,632.432 243.012,632.763 L 242.897,633.012 C 242.464,633.999 242.575,634.748 241.927,635.581 C 241.731,635.795 241.192,636.269 240.981,636.455 C 240.377,637.069 239.831,637.64 239.319,638.184 C 238.603,638.968 237.653,639.924 235.909,642.208 C 234.187,644.505 233.017,646.499 232.063,648.589 C 231.456,649.975 229.572,654.691 230.316,659.669 Z " clip-rule="nonzero"/> </clipPath> </defs> <g id="dp_dp001" transform="matrix(1,0,0,1,-203.515,-543.812)"> <path id="dp_path002" fill="#6d2e2a" fill-rule="evenodd" stroke="none" stroke-width="0" d="M 281.463,753.881 C 285.713,753.82 289.696,753.039 293.539,751.776 C 299.545,749.74 308.328,745.415 311.683,737.412 C 312.34,735.781 312.801,733.971 312.732,732.165 L 309.763,733.805 C 307.444,742.451 295.156,747.66 290.551,749.141 C 287.42,750.119 284.18,750.779 280.7,750.903 C 277.453,750.985 273.915,750.597 270.58,748.936 C 265.733,746.415 263.715,742.075 262.96,738.08 L 261.868,737.932 C 262.509,748.959 270.771,753.941 281.463,753.881 Z "/> <path id="dp_path003" fill="#512d55" fill-rule="evenodd" stroke="none" stroke-width="0" d="M 340.419,662.332 C 339.409,671.999 330.283,678.395 319.981,678.959 L 317.753,675.256 C 333.596,675.545 338.656,666.533 340.419,662.332 Z "/> <path id="dp_path004" fill="#6b2c29" fill-rule="evenodd" stroke="none" stroke-width="0" d="M 339.4,666.024 C 341.28,677.337 340.105,689.659 328.979,693.528 L 330.589,697.611 C 343.129,691.059 342.351,677.559 339.668,665.487 Z "/> <path id="dp_path005" fill="#512d55" fill-rule="evenodd" stroke="none" stroke-width="0" d="M 275.324,654.365 C 271.621,647.533 267.113,650.219 263.709,652.724 L 262.231,650.877 C 266.836,647.759 273.235,644.729 275.324,654.365 Z "/> <path id="dp_path006" fill="#512d55" fill-rule="evenodd" stroke="none" stroke-width="0" d="M 233.147,658.2 C 231.769,651.744 234.604,646.955 235.425,645.343 C 235.656,644.907 235.884,644.493 236.115,644.088 C 236.453,643.509 236.283,643.797 236.631,643.223 C 237.003,642.625 236.815,642.924 237.193,642.331 L 237.495,641.884 C 237.748,641.512 238.024,641.112 238.324,640.688 C 239.485,639.076 240.907,637.427 241.853,636.357 C 240.997,642.332 243.475,648.313 247.567,653.139 L 251.376,652.432 C 246.337,648.368 241.795,642.511 242.972,633.939 C 243.788,635.076 245.448,637.864 248.225,641.039 C 251.136,644.133 255.94,647.388 257.564,648.403 C 258.535,648.805 259.693,649.263 261.116,649.695 C 263.399,650.359 264.404,650.536 265.109,650.7 L 267.792,648.864 C 261.759,647.879 256.668,645.296 251.219,641.057 C 249.009,639.408 246.987,637.551 245.212,635.593 C 244.872,635.201 244.541,634.813 244.207,634.415 C 243.844,633.987 243.588,633.771 243.279,633.251 C 242.997,632.643 243.283,632.268 243.377,632.025 L 243.252,632.269 C 243.089,632.597 243.169,632.432 243.012,632.763 L 242.897,633.012 C 242.464,633.999 242.575,634.748 241.927,635.581 C 241.731,635.795 241.192,636.269 240.981,636.455 C 240.377,637.069 239.831,637.64 239.319,638.184 C 238.603,638.968 237.653,639.924 235.909,642.208 C 234.187,644.505 233.017,646.499 232.063,648.589 C 231.456,649.975 229.572,654.691 230.316,659.669 Z "/> <g id="dp_dp007" clip-path="url(#clip_dp_001)"> <g id="clip"> <path id="dp_path008" fill="#6b2c29" fill-rule="evenodd" stroke="none" stroke-width="0" d="M 242.484,633.273 C 242.087,635.008 241.707,636.768 241.603,638.501 L 235.949,649.431 L 233.763,656.887 C 231.972,657.611 230.316,658.293 228.637,659.017 L 228.749,648.872 L 237.849,635.697 Z "/> </g> </g> <path id="dp_path009" fill="#512d55" fill-rule="evenodd" stroke="none" stroke-width="0" d="M 277.881,741.603 C 297.715,741.431 314.339,735.265 324.997,725.476 C 329.215,721.525 332.827,716.492 334.493,710.607 C 334.244,709.017 333.988,707.3 333.364,704.655 C 332.876,702.656 332.5,701.505 332.328,700.939 C 332.153,700.36 331.952,699.683 331.847,699.336 C 331.383,697.855 330.892,696.408 330.359,694.98 C 330.2,694.572 329.183,692.015 328.212,690.096 C 326.776,687.176 323.607,680.648 320.309,676.411 L 318.411,676.347 C 319.56,678.281 320.284,679.627 321.264,681.469 L 321.877,682.633 L 322.571,683.975 L 323.275,685.347 L 324.729,688.191 C 328.645,696.127 330.701,703.948 331.132,709.913 C 328.208,720.497 318.595,726.9 310.521,730.552 C 290.561,739.408 268.315,738.939 249.981,733.279 C 228.581,726.508 209.575,710.399 206.451,691.044 C 206.021,688.152 205.883,685.597 206.175,682.491 C 206.289,681.327 206.113,680.083 207.313,677.259 C 207.965,675.904 209.044,674.648 210.135,673.645 C 211.225,672.608 212.228,671.653 214.216,670.085 C 221.589,664.4 231.963,658.709 242.537,655.159 C 246.645,653.815 250.361,652.941 253.657,652.276 C 254.883,652.061 257.667,651.693 258.876,651.556 C 256.091,651.547 254.631,651.733 252.428,652.023 C 249.752,652.393 247.303,652.829 243.799,653.701 C 235.168,655.905 227.44,659.083 218.815,664.44 C 218.364,664.723 217.913,665.009 217.463,665.3 C 216.08,666.199 214.703,667.14 213.248,668.215 C 212.081,669.095 208.884,671.883 208.153,672.592 C 206.771,673.936 205.524,675.512 204.767,676.969 C 203.867,679.023 203.868,680.687 203.748,681.645 C 203.439,684.264 203.479,687.876 203.933,691.015 C 204.881,697.167 206.955,702.873 211.091,708.965 C 218.864,720.2 233.928,733.227 255.483,738.869 C 263.148,740.828 270.68,741.616 277.881,741.603 Z "/> <path id="dp_path010" fill="#512d55" fill-rule="evenodd" stroke="none" stroke-width="0" d="M 339.796,663.981 C 329.231,666.46 320.283,667.796 312.459,665.127 C 305.744,663.211 297.609,650.275 272.913,649.604 L 274.055,651.441 C 294.524,651.697 306.168,665.743 311.909,667.343 C 319.532,670.039 328.631,667.865 339.544,664.804 Z "/> <path id="dp_path011" fill="#2d2b2d" fill-rule="evenodd" stroke="none" stroke-width="0" d="M 233.208,662.107 C 235.749,673.091 247.564,673.367 255.616,676.877 L 253.883,678.989 C 248.619,675.337 233.637,675.624 233.208,662.107 Z "/> <path id="dp_path012" fill="#2d2b2d" fill-rule="evenodd" stroke="none" stroke-width="0" d="M 254.072,677.663 C 250.528,676.564 246.657,675.328 241.981,673.105 C 241.064,672.659 240.121,672.171 239.127,671.609 C 234.18,668.717 230.883,665.525 229.931,660.444 C 228.821,670.088 237.628,675.577 242.961,677.429 L 245.325,676.204 L 250.568,677.833 L 252.385,678.668 Z "/> <path id="dp_path013" fill="#512d55" fill-rule="evenodd" stroke="none" stroke-width="0" d="M 257.279,675.708 C 258.813,674.253 258.768,673.996 259.251,673.273 C 259.772,672.468 260.211,671.692 260.616,670.924 C 262.481,667.287 263.841,663.947 264.532,659.155 C 264.692,657.884 264.887,656.377 264.299,655.327 L 262.236,655.872 C 262.379,656.131 262.535,656.187 261.961,656.256 C 261.545,656.313 261.136,656.38 260.728,656.452 C 259.315,656.729 257.963,657.108 256.637,657.572 C 252.088,659.233 245.645,662.668 241.951,668.369 C 244.867,665.204 252.632,657.783 262.563,657.012 C 262.809,659.14 262.487,660.427 262.275,661.743 C 261.729,664.945 260.961,667.561 259.939,670.272 C 259.493,671.415 259.001,672.556 258.395,673.745 C 258.133,674.241 257.851,674.74 257.533,675.257 C 257.296,675.625 257.417,675.441 257.175,675.805 Z "/> <path id="dp_path014" fill="#512d55" fill-rule="evenodd" stroke="none" stroke-width="0" d="M 290.292,661.76 C 293.828,662.781 295.64,672.445 295.835,685.112 L 295.253,685.332 C 293.635,666.812 291.789,663.847 290.156,663.351 C 284.215,663.195 274.36,676.003 272.68,682.485 C 274.293,672.769 286.357,660.371 290.292,661.76 Z "/> <path id="dp_path015" fill="#2d2b2d" fill-rule="evenodd" stroke="none" stroke-width="0" d="M 310.424,682.745 C 290.399,693.028 278.985,690.563 274.112,683.435 L 277.769,683.647 C 283.129,688.924 294.568,687.929 310.424,682.745 Z "/> <path id="dp_path016" fill="#2d2b2d" fill-rule="evenodd" stroke="none" stroke-width="0" d="M 274.085,682.499 L 278.096,682.96 C 283.085,686.34 294.144,688.42 304.875,681.347 C 296.612,690.417 280.199,691.035 274.085,682.499 Z "/> <path id="dp_path017" fill="#512d55" fill-rule="evenodd" stroke="none" stroke-width="0" d="M 285.647,657.937 C 288.941,654.64 294.843,654.105 296.496,663.697 L 297.961,661.604 C 296.311,652.452 289.297,650.189 285.647,657.937 Z "/> <path id="dp_path018" fill="#512d55" fill-rule="evenodd" stroke="none" stroke-width="0" d="M 241.477,699.691 C 241.711,693.9 244.539,689.803 249.104,686.836 L 247.763,686.131 C 244.725,687.779 241.216,692.292 241.477,699.691 Z "/> <path id="dp_path019" fill="#512d55" fill-rule="evenodd" stroke="none" stroke-width="0" d="M 287.827,695.985 C 250.663,718.837 228.965,704.813 222.101,679.62 L 222.78,679.105 L 222.78,679.176 C 223.899,682.236 236.056,724.275 287.332,695.561 Z "/> <path id="dp_path020" fill="#512d55" fill-rule="evenodd" stroke="none" stroke-width="0" d="M 222.656,677.876 C 220.74,678.457 218.013,680.724 219.268,683.961 C 219.549,681.04 221.328,680.181 222.985,679.855 C 222.728,679.071 222.672,678.576 222.656,677.876 Z "/> <path id="dp_path021" fill="#512d55" fill-rule="evenodd" stroke="none" stroke-width="0" d="M 287.547,694.332 C 289.384,695.321 291.696,698.2 289.747,701.247 C 290.064,698.207 288.425,696.961 286.801,696.284 C 287.227,695.537 287.384,695.043 287.547,694.332 Z "/> <path id="dp_path022" fill="#512d55" fill-rule="evenodd" stroke="none" stroke-width="0" d="M 242.617,724.457 C 247.968,732.211 255.727,738.565 275.169,733.045 C 264.823,741.336 251.88,739.145 242.217,727.753 Z "/> <path id="dp_path023" fill="#512d55" fill-rule="evenodd" stroke="none" stroke-width="0" d="M 256.395,769.909 C 255.543,776.197 255.415,782.308 263.603,792.356 L 264.633,792.06 C 260.525,786.624 258.419,779.639 258.929,771.916 Z "/> <path id="dp_path024" fill="#512d55" fill-rule="evenodd" stroke="none" stroke-width="0" d="M 329.912,797.815 C 295.016,798.404 292.452,783.444 274.497,779.32 C 292.837,785.255 285.076,798.852 330.197,799.82 C 335.313,799.548 340.685,798.777 347.081,796.587 L 342.173,796.348 C 338.583,797.431 333.821,797.695 329.912,797.815 Z "/> <path id="dp_path025" fill="#512d55" fill-rule="evenodd" stroke="none" stroke-width="0" d="M 298.513,792.361 C 310.732,796.205 328.625,798.188 341.436,793.361 C 346.62,795.917 353.711,795.549 360.875,792.783 C 355.051,796.948 347.821,797.201 341.856,796.776 L 336.919,798.667 L 327.567,798.456 L 316.165,798.247 L 306.131,795.725 L 299.616,793.728 Z "/> <path id="dp_path026" fill="#512d55" fill-rule="evenodd" stroke="none" stroke-width="0" d="M 251.84,758.125 C 249.147,764.545 243.215,748.877 245.304,735.341 L 242.956,734.199 C 239.188,750.608 250.531,770.279 251.84,758.125 Z "/> <path id="dp_path027" fill="#512d55" fill-rule="evenodd" stroke="none" stroke-width="0" d="M 250.635,760.409 L 250.635,760.219 C 251.237,762.927 253.12,767.493 260.472,771.96 L 258.505,771.96 C 255.156,769.988 251.928,768.381 249.112,760.98 Z "/> <path id="dp_path028" fill="#512d55" fill-rule="evenodd" stroke="none" stroke-width="0" d="M 272.365,811.712 C 238.076,810.057 249.428,783.972 284.157,791.136 L 282.655,792.188 C 261.212,787.149 239.156,803.499 267.184,808.333 Z "/> <path id="dp_path029" fill="#512d55" fill-rule="evenodd" stroke="none" stroke-width="0" d="M 362.787,800.015 L 359.632,801.143 C 374.775,826.685 277.8,817.695 313.107,798.101 L 310.177,797.312 C 273.292,822.743 380.245,829.944 362.787,800.015 Z "/> <path id="dp_path030" fill="#512d55" fill-rule="evenodd" stroke="none" stroke-width="0" d="M 269.919,778.185 C 267.14,777.933 263.075,776.589 260.789,774.909 L 261.921,773.309 C 264.18,774.879 267.127,776.161 270.427,777.211 Z "/> <path id="dp_path031" fill="#512d55" fill-rule="evenodd" stroke="none" stroke-width="0" d="M 284.787,814.059 C 291.516,813.988 294.416,813.112 296.597,812.668 C 299.152,812.124 301.684,811.484 304.285,810.736 L 302.632,806.907 C 293.888,810.011 281.225,812.209 269.745,807.427 L 267.263,808.381 C 272.189,813.083 279.003,814.089 284.787,814.059 Z "/> <path id="dp_path032" fill="#512d55" fill-rule="evenodd" stroke="none" stroke-width="0" d="M 267.596,795.255 C 267.796,797.796 259.613,801.369 267.036,805.935 L 263.849,805.16 C 257.9,800.973 266.308,797.143 267.596,795.255 Z "/> <path id="dp_path033" fill="#512d55" fill-rule="evenodd" stroke="none" stroke-width="0" d="M 316.724,801.984 C 316.955,804.908 307.537,809.02 316.079,814.275 L 312.412,813.383 C 305.567,808.564 315.241,804.157 316.724,801.984 Z "/> <path id="dp_path034" fill="#512d55" fill-rule="evenodd" stroke="none" stroke-width="0" d="M 334.537,806.197 C 334.643,809.389 328.036,814.003 329.135,817.383 L 332.359,817.572 C 330.773,813.603 336.321,809.305 334.537,806.197 Z "/> <path id="dp_path035" fill="#512d55" fill-rule="evenodd" stroke="none" stroke-width="0" d="M 282.197,798.043 L 282.824,798.079 C 280.215,800.203 278.843,802.92 279.8,806.859 L 277.437,806.529 C 275.048,802.117 279.621,800.493 282.197,798.043 Z "/> <path id="dp_path036" fill="#512d55" fill-rule="evenodd" stroke="none" stroke-width="0" d="M 283.076,791.827 L 284.965,790.575 C 273.781,786.909 270.413,788.973 269.209,790.855 L 272.191,790.92 L 276.403,791.016 L 279.577,791.179 L 281.359,791.471 Z "/> <path id="dp_path037" fill="#512d55" fill-rule="evenodd" stroke="none" stroke-width="0" d="M 359.788,801.555 L 363.429,804.955 C 481.74,742.273 401.897,619.965 341.213,680.143 L 340.604,680.871 L 340.119,685.241 C 340.671,684.391 342.036,683.087 344.208,681.263 C 397.756,625.179 475.835,741.537 359.788,801.555 Z "/> <path id="dp_path038" fill="#512d55" fill-rule="evenodd" stroke="none" stroke-width="0" d="M 385.899,808.876 C 387.964,808.859 390.493,808.848 393.741,808.473 C 395.885,808.199 399.055,807.529 399.477,807.437 C 400.745,807.151 404.729,806.188 407.987,804.717 C 409.573,803.976 409.976,803.784 411.553,802.695 C 419,797.376 414.013,789.707 410.643,786.635 C 409.356,785.504 407.765,784.5 405.999,783.671 C 402.181,781.952 398.18,781.183 393.252,781.048 C 393.005,781.252 392.757,781.452 392.515,781.659 L 392.845,781.669 C 397.46,781.887 408.016,783.225 412.489,790.96 C 413.453,792.693 413.993,794.701 413.552,796.701 C 412.164,802.063 404.485,804.1 403.42,804.464 L 402.869,804.643 C 400.469,805.388 397.844,805.971 395.009,806.363 C 393.187,806.597 390.129,806.84 389.607,806.877 L 387.895,806.827 C 384.699,806.72 379.623,806.199 376.433,805.421 C 374.412,804.9 370.507,803.248 367.827,800.031 L 363.889,802.553 C 367.959,808.756 378.316,808.596 379.633,808.713 C 380.285,808.764 379.959,808.74 380.612,808.784 C 381.793,808.851 384.052,808.881 384.504,808.881 Z "/> <path id="dp_path039" fill="#512d55" fill-rule="evenodd" stroke="none" stroke-width="0" d="M 389.845,805.955 C 391.819,801.239 388.827,797.624 387.875,796.488 L 386.057,795.687 C 388.716,797.132 388.932,803.947 386.916,806.191 Z "/> <path id="dp_path040" fill="#512d55" fill-rule="evenodd" stroke="none" stroke-width="0" d="M 389.436,667.205 L 386.023,666.273 C 399.32,616.757 359.531,577.927 348.639,572.735 C 338.057,567.452 315.78,585.561 309.905,594.181 L 304.739,592.115 C 315.629,577.297 340.06,563.724 350.413,569.896 C 372.749,584.163 400.94,624.363 389.436,667.205 Z "/> <path id="dp_path041" fill="#512d55" fill-rule="evenodd" stroke="none" stroke-width="0" d="M 407.355,677.331 L 402.945,674.599 C 446.043,527.576 278.216,510.672 266.901,606.707 C 262.227,675.9 354.719,632.164 304.924,591.708 L 310.157,592.753 C 357.643,633.009 257.673,686.216 263.064,607.752 C 265.404,515.876 452.093,510.005 407.355,677.331 Z "/> <path id="dp_path042" fill="#6d2e2a" fill-rule="evenodd" stroke="none" stroke-width="0" d="M 255.099,687.021 C 252.524,687.021 250.988,686.504 250.448,686.364 C 249.536,686.111 246.364,685.229 243.98,682.749 C 243.603,682.344 240.828,679.095 243.869,677.809 C 245.025,677.385 246.331,677.615 247.591,677.892 C 250.325,678.543 252.151,679.284 254.185,680.28 C 254.42,680.399 255.399,680.876 256.521,681.644 C 258.311,682.905 260.085,684.896 258.289,686.256 C 257.159,687.039 255.956,687.007 255.099,687.021 Z M 254.775,688.416 C 256.357,688.376 262.011,687.713 260.004,683.44 C 259.637,682.724 259.171,682.179 258.696,681.7 C 255.768,678.901 251.409,677.424 247.424,676.465 C 246.3,676.212 244.716,675.699 242.767,676.271 C 239.4,677.384 240.819,681.295 241.56,682.515 C 244.487,687.077 250.564,688.449 254.775,688.416 Z "/> <path id="dp_path043" fill="#522c52" fill-rule="evenodd" stroke="none" stroke-width="0" d="M 401.057,782.924 L 398.739,782.133 L 395.317,781.291 L 389.365,785.873 L 378.256,793.297 L 375.992,796.299 C 384.779,792.309 393.923,788.889 401.057,782.924 Z "/> <path id="dp_path044" fill="#512d55" fill-rule="evenodd" stroke="none" stroke-width="0" d="M 400.243,794.508 C 404.867,796.503 407.876,800.06 406.877,803.859 L 403.357,802.959 C 404.692,799.615 404.22,797.529 400.243,794.508 Z "/> </g> </svg>