<?xml version="1.0" encoding="UTF-8"?>
<svg viewBox="0 0 166.69376 247.08348" xmlns="http://www.w3.org/2000/svg">
 <g transform="translate(-867.91 -273.69)" stroke="#000">
  <path d="m994.96 335.58c-51.361 3.5453-52.719 72.634 10.536 54.821 22.782-6.4153 8.2351-53.344-10.536-54.821z" fill="none"/>
  <path d="m976.39 340.76c16.058-5.4392 43.391 15.76 25.357 29.286-4.0621 3.0466-8.1566 5.1497-12.5 7.3214-3.6872 1.8436-7.6679 2.592-12.321 1.4286-19.326-4.8315-7.5818-34.953-0.53571-38.036z"/>
  <path transform="translate(253,-15)" d="m733.04 366.11c0 2.3669-1.9987 4.2857-4.4643 4.2857s-4.4643-1.9188-4.4643-4.2857 1.9987-4.2857 4.4643-4.2857 4.4643 1.9188 4.4643 4.2857z" fill="#fff" stroke-opacity=".959"/>
  <path d="m975.68 363.61c21.246 5.3824 22.211-14.009 24.286-11.607 13.123 15.189-24.097 32.203-24.286 11.607z" fill="#fff"/>
  <path d="m971.39 396.11c11.963-4.2732 24.357-4.9283 33.036 3.75" fill="none"/>
  <path d="m1011 397.01c6.6426-2.9007 13.82-4.6455 20.714-1.9643" fill="none"/>
  <path d="m1012.1 402.36c8.8771-0.50834 16.347 4.8532 22.143 9.8214" fill="none"/>
  <path d="m1010.5 406.47c8.5998-0.50871 10.391 5.5627 14.821 9.1072" fill="none"/>
  <path d="m938.98 386.74c6.2016 2.3572 5.5744 1.6402 5.8297 2.7304 0.3944 1.6844-3.0006 3.6951-4.8822 3.0464-1.3688-0.4719-1.7421-2.7892-0.94754-5.7768z" fill="none"/>
  <path d="m920.23 391.2c-12.044 6.7336 3.3324 15.615 11.964 13.929 1.5508-0.30305 4.7364-3.2455 3.6607-3.125-3.0445 0.34114 22.682 18.597 25.536 1.4286 0.27099-1.6305-0.90341-2.856-1.6071-4.1071" fill="none"/>
  <path d="m900.63 375.59c9.6932-1.3863 14.384 2.1931 19.067 9.2176" fill="none"/>
  <path d="m909 335.18c-24.26 29.839 6.0514 60.125 37.218 31.82 11.737-17.606 7.0257-35.07-11.996-42.679-2.0073-0.80292-7.823-1.5812-9.9752-0.50507-5.8811 2.9406-11.67 8.7925-15.39 11.52" fill="none"/>
  <path d="m942.2 341.29c8.5761 17.152-27.067 29.795-33.571 16.786-11.319-12.656 7.7633-33.765 16.071-31.25 12.596 5.5073 11.074 3.8611 17.5 14.464z"/>
  <path d="m927.16 337.23c0 1.9794-1.6446 3.5839-3.6732 3.5839s-3.6732-1.6046-3.6732-3.5839 1.6446-3.584 3.6732-3.584 3.6732 1.6046 3.6732 3.584z" fill="#fff" stroke-opacity=".959" stroke-width="1.0642"/>
  <path d="m917.02 350.4c15.923 5.2686 15.325-7.2824 18.75-8.9286 3.5192-1.6916 2.8327 8.04 1.6071 10.446-4.6593 9.1483-29.025 11.088-20.357-1.5178z" fill="#fff"/>
  <path d="m875.5 366.65c7.7132-0.9433 18.336-0.66766 22.054 7.2321" fill="none"/>
  <path d="m868.09 383.17c7.6462-3.3004 16.113-5.848 25.357-3.9286" fill="none"/>
  <path d="m873.98 391.83c4.3466-6.721 18.724-9.6895 19.018-8.9286" fill="none"/>
  <path d="m1029.2 368.53c2.6411 38.405-25.935 64.773-67.167 63.913-38.396-0.80086-74.637-27.525-70.56-64.806 3.8809-35.483 32.732-66.022 70.917-67.663 42.439-1.8238 64.227 31.002 66.81 68.556z" fill="none" stroke-opacity=".959" stroke-width="1.1942"/>
  <path d="m951.65 313.59c-7.7858 14.346-19.302 7.2937-30.931 8.1847-1.5062 0.11541-3.6755 2.0196-4.9289 2.2956" fill="none"/>
  <path d="m969.32 315.36c-0.3392 24.186 30.19 13.78 42.048 22.476" fill="none"/>
  <path d="m951.77 301.21c-2.1312-3.4245-17.353-27.022-22.35-27.022-4.0638 0-7.7085 35.793-9.3439 41.164" fill="none"/>
  <path d="m928.29 309.67c-1.1593-3.2431 6.2067-14.322 8.3338-13.258 1.9991 0.99956 3.4692 5.9325 5.177 7.0711" fill="none"/>
  <path d="m930.44 274.1c2.7241 2.2474 13.434 12.802 16.78 15.073 10.919 7.4116 15.145 9.2918 20.818 10.96" fill="none"/>
  <path d="m1001.3 310.3c11.046-5.8448 22.215-20.048 30.683-23.36 3.5495 15.446 3.2947 66.157-5.4296 66.796" fill="none"/>
  <path d="m987.17 303.56c11.653 2.1024 38.207-12.829 44.677-16.742" fill="none"/>
  <path d="m1011.2 319.52c1.1663-1.0945 4.6853-4.8976 7.2328-4.6232 1.2604 0.13574-2.0607 4.1234-1.0107 4.8233 0.8309 0.55382 4.4095-3.0639 5.2765-2.4854 0.9176 0.61223-3.4992 3.7439-3.2101 4.9478 0.1551 0.64575 5.4942-2.1536 5.8066-1.561 1.1434 2.1696-2.4419 7.517-6.0139 10.136" fill="none"/>
  <path d="m951.82 439.24c0 4.8905-3.2177 7.8449-9.4455 7.8449s-11.213-3.2069-11.213-8.0974 5.1117-8.9182 11.34-8.9182c0.51124 0 1.0013 0.0288 1.4703 0.0845 5.2441 0.62234 7.8488 4.5972 7.8488 9.0862z" fill="none" stroke-opacity=".959" stroke-width=".89054"/>
  <path d="m971.09 444.03c0.27682 6.22-4.0182 7.3467-9.8806 8.1425-7.6974 1.0449-10.065-2.646-9.628-8.1425 0.41478-5.2127 4.4539-8.1433 9.8174-8.6476 5.7092-0.53682 9.4131 2.4001 9.6912 8.6476z" fill="none" stroke-opacity=".959"/>
  <path d="m970.77 441.25c11.676-1.1514 24.7-3.1602 36.429-1.2054" fill="none"/>
  <path d="m968.76 449.77c11.807 8.8823 27.909 11.611 40.154 18.814" fill="none"/>
  <path d="m937.29 446.78c-0.43136 5.596 2.1446 18.307 7.5446 20.67" fill="none"/>
  <path d="m944.44 447.25c2.7028 21.604-0.7119 44.354-0.74493 65.084-0.47771 16.428 29.154 2.2526 41.773 1.9971 42.025 9.3769 31.965-3.3233 31.807-35.363-0.7074-13.512-5.4426-44.302-13.045-57.03" fill="none"/>
 </g>
</svg>
