<?xml version="1.0" encoding="utf-8"?>
<!-- Generator: Adobe Illustrator 13.0.0, SVG Export Plug-In . SVG Version: 6.00 Build 14948)  -->
<!DOCTYPE svg PUBLIC "-//W3C//DTD SVG 1.1//EN" "http://www.w3.org/Graphics/SVG/1.1/DTD/svg11.dtd">
<svg version="1.1" id="Layer_1" xmlns="http://www.w3.org/2000/svg" xmlns:xlink="http://www.w3.org/1999/xlink" x="0px" y="0px"
	 width="582.926px" height="446.34px" viewBox="16.658 117.074 582.926 446.34"
	 enable-background="new 16.658 117.074 582.926 446.34" xml:space="preserve">
<path d="M422.609,513.441c-0.758-2.479-5.792-19.392-11.188-37.586l-9.811-33.078l11.302-13.711
	c6.216-7.541,11.302-15.774,11.302-18.297c0-7.839-12.053-4.777-25.102,6.376c-14.202,12.14-28.979,14.293-28.979,4.224
	c0-3.545,4.802-12.063,10.67-18.928s10.735-13.699,10.816-15.187c0.321-5.926-9.902-2.18-18.153,6.652
	c-13.687,14.65-26.318,20.126-33.804,14.652c-5.63-4.117-4.695-6.188,10.338-22.909c14.829-16.492,20.241-26.337,14.482-26.337
	c-1.125,0-11.008,7.301-21.962,16.225c-21.419,17.447-39.064,21.566-43.448,10.142c-1.662-4.332,2.52-10.353,14.535-20.926
	c16.03-14.105,21.278-23.467,13.156-23.467c-2.041,0-11.787,6.385-21.659,14.188c-21.212,16.767-30.77,20.427-37.896,14.512
	c-7.979-6.622-6.683-9.568,12.792-29.042c9.914-9.915,18.026-19.572,18.026-21.46c0-7.662-12.708-2.608-27.325,10.864
	c-15.855,14.616-29.721,20.55-39.365,16.849c-8.468-3.249-6.62-7.614,10.808-25.547c8.924-9.182,16.225-18.973,16.225-21.758
	c0-6.767-14.06-16.29-24.051-16.29c-6.743,0-9.009,3.507-14.186,21.958c-8.155,29.064-14.363,31.477-42.277,16.421
	c-40.273-21.721-85.329-72.249-85.329-95.691c0-9.285,17.226-23.255,48.325-39.19c24.01-12.303,28.051-13.198,65.679-14.562
	c34.588-1.253,42.388-0.438,56.784,5.93c9.179,4.061,16.688,9.597,16.688,12.304s-5.679,14.352-12.618,25.877
	c-6.94,11.526-12.619,23.217-12.619,25.979c0,4.704,19.907,19.297,26.365,19.326c1.611,0.008,7.656-10.41,13.433-23.15
	c10.058-22.182,19.902-30.947,28.671-25.528c6.615,4.089,4.029,36.878-4.253,53.925c-8.007,16.48-7.147,24.393,1.839,16.935
	c2.716-2.254,7.784-10.41,11.263-18.124c6.433-14.267,19.962-24.764,26.616-20.651c8.905,5.504,8.327,23.615-1.449,45.399
	c-10.709,23.864-8.812,33.198,3.391,16.676c15.928-21.563,19.758-25.57,22.161-23.178c4.23,4.214-16.114,37.3-38.313,62.307
	c-11.673,13.149-21.223,24.643-21.223,25.539c0,5.543,10.189-0.779,27.229-16.896c19.243-18.199,37.666-49.484,37.666-63.962
	c0-3.972,1.634-8.231,3.631-9.466c7.009-4.331,8.295,10.232,2.326,26.338c-7.411,19.996-5.6,22.847,5.22,8.213
	c9.981-13.5,15.193-13.986,20.687-1.931c3.457,7.588,2.936,11.605-3.026,23.291c-12.973,25.429-6.625,35.36,8.085,12.651
	c4.479-6.916,10.063-12.594,12.409-12.618c7.14-0.075,9.431,14.613,4.573,29.332c-2.527,7.657-3.434,15.085-2.014,16.505
	c3.502,3.502,9.277-6.235,9.345-15.756c0.051-7.063,2.467-7.899,27.997-9.696c15.367-1.081,33.192-3.057,39.612-4.39
	c15.31-3.179,29.79,0.657,29.79,7.891c0,3.172-16.347,22.125-36.325,42.117c-31.378,31.399-38.561,40.944-52.73,70.071
	c-16.263,33.43-23.616,44.147-30.291,44.147c-1.903,0-4.08-2.028-4.838-4.507L422.609,513.441z M444.429,472.615
	c2.046-8.145-14.659-30.379-22.823-30.379c-5.851,0-5.808,0.714,1.372,22.951c3.287,10.182,6.647,20.944,7.468,23.919
	c1.207,4.377,2.504,4.033,6.799-1.803C440.164,483.337,443.397,476.728,444.429,472.615L444.429,472.615z M456.66,444.165
	c0-2.905-3.245-7.019-7.211-9.141c-8.116-4.344-8.896-2.676-3.479,7.447C450.372,450.696,456.66,451.692,456.66,444.165
	L456.66,444.165z M471.081,420.302c0-4.283-18.182-11.564-21.23-8.502c-3.091,3.104,14.054,16.419,18.002,13.979
	C469.629,424.681,471.082,422.216,471.081,420.302L471.081,420.302z M491.712,403.784c1.403-4.215-2.358-5.88-22.434-9.93
	l-10.816-2.182l10.816,9.095C480.344,410.073,489.22,411.266,491.712,403.784L491.712,403.784z M425.893,376.189
	c6.005-9.795,5.989-10.007-0.429-5.826c-3.664,2.386-12.217,11.827-19.009,20.98l-12.347,16.643l12.776-10.816
	C413.912,391.221,422.466,381.779,425.893,376.189L425.893,376.189z M515.708,375.034c6.625-9.089,6.625-9.249,0-7.393
	c-3.725,1.043-16.506,3.099-28.403,4.567l-21.632,2.671l14.421,4.559C501.412,386.177,508.198,385.338,515.708,375.034z
	 M384.929,372.706c6.618-5.041,22.619-34.866,20.071-37.414c-1.703-1.703-14.129,13.779-25.791,32.133
	C372.602,377.824,375.137,380.164,384.929,372.706L384.929,372.706z M322.798,325.044c10.987-12.515,29.362-45.636,34.491-62.174
	c1.8-5.804,1.048-8.112-2.641-8.112c-2.836,0-10.154,10.14-16.263,22.533s-17.688,31.344-25.732,42.113
	c-8.045,10.769-14.626,20.966-14.626,22.66C298.027,347.394,311.002,338.479,322.798,325.044L322.798,325.044z M285.885,301.04
	c12.002-12.787,33.775-54.652,33.775-64.943c0-10.71-7.071-11.019-11.063-0.483c-7.841,20.69-25.586,52.708-40.108,72.367
	c-13.802,18.682-14.146,19.67-4.432,12.677C269.851,316.485,279.675,307.657,285.885,301.04L285.885,301.04z M207.676,297.801
	c3.114-8.802,9.348-22.492,13.852-30.424c20.865-36.742,27.55-47.706,35.905-58.893c11.583-15.508,8.154-18.807-22.885-22.02
	c-28.502-2.95-53.05,0.289-80.866,10.671c-19.427,7.251-43.153,22.925-39.528,26.112c0.991,0.872,15.998,10.762,33.35,21.977
	c17.351,11.215,31.546,21.806,31.546,23.534c0,1.728-2.362,5.104-5.251,7.5c-4.267,3.541-9.155,1.562-26.078-10.557
	c-22.619-16.198-30.188-13.808-13.233,4.179c13.499,14.321,59.314,46.658,63.927,45.12c1.978-0.659,6.145-8.399,9.259-17.201
	L207.676,297.801z M173.902,238.277c-3.116-3.115-5.666-8.092-5.666-11.056c0-8.26,18.11-30.147,24.944-30.147
	c16.168,0,20.389,25.859,6.37,39.03C189.678,245.378,181.68,246.055,173.902,238.277L173.902,238.277z M272.793,276.178
	c0-1.866-1.623-3.393-3.605-3.393c-1.983,0-3.605,2.529-3.605,5.62c0,3.092,1.622,4.618,3.605,3.393
	C271.17,280.573,272.793,278.043,272.793,276.178z M251.161,263.559c0-0.874-1.623-1.59-3.605-1.59
	c-1.983,0-3.605,1.719-3.605,3.818s1.622,2.815,3.605,1.59C249.538,266.152,251.161,264.434,251.161,263.559z"/>
</svg>
